<?xml version="1.0" encoding="UTF-8"?>
<!-- Created with Inkscape (http://www.inkscape.org/) -->
<svg  width="1350"
   height="650"
   viewBox="0 0 230 230" version="1.1" xmlns="http://www.w3.org/2000/svg">
 <g transform="translate(-65.79 -25.273)">
  <g transform="translate(37.521 2.8242)" stroke-width=".32">
   <path d="m171.18 188.36c-2.5726-0.69384-4.3572-2.1361-7.1162-5.7513-1.3542-1.7744-2.5409-2.2627-5.32-2.189-3.5493 0.0941-4.7538-0.59708-6.9726-4.001-1.9896-3.0523-5.1297-9.4928-6.1349-12.583-4.0475-12.443-3.178-25.871 2.3887-36.892 3.7308-7.386 6.191-10.096 19.303-21.261 12.073-10.28 12.037-10.258 14.707-9.1696 2.4454 0.997 2.6402 1.6671 4.3612 15.002 0.81773 6.336 1.6894 12.253 1.9371 13.148 0.33888 1.2254 0.92941 2.1363 2.3857 3.68 3.0898 3.2752 3.3266 3.9715 3.5273 10.372l0.17062 5.44 1.9587 4c3.123 6.3776 3.3882 7.4587 3.5451 14.449 0.16171 7.2083-0.25941 9.3164-2.9764 14.899-2.7686 5.689-4.201 6.7351-9.7885 7.1486-2.8304 0.20945-3.7569 0.41419-5.146 1.1372-0.93177 0.48497-2.3421 1.2143-3.1341 1.6207-1.4041 0.7205-4.2054 1.4072-5.5637 1.3638-0.37197-0.0119-1.3314-0.19828-2.1321-0.41423zm10.974-7.5432c6.0726-1.5531 9.4655-4.8216 11.021-10.617 2.2144-8.2488-2.2371-29.28-9.1021-43.004-1.7993-3.597-2.9241-5.2545-5.1804-7.6337-2.4701-2.6048-3.7567-3.2227-6.7369-3.2358-3.0063-0.0132-4.6992 0.75841-7.583 3.4561-8.1138 7.5901-15.628 29.983-13.408 39.959 1.3568 6.0985 6.88 13.641 12.919 17.641 5.6607 3.75 12.072 4.9684 18.071 3.4341zm-9.8381-3.972c-5.2177-1.7378-10.398-5.8093-13.939-10.956-1.015-1.4752-3.2447-5.9365-3.0595-6.1216 0.0608-0.0608 0.96208 0.7218 2.0029 1.739 3.3989 3.3219 7.2832 4.8896 12.115 4.8896 7.4054 0 12.803-3.7123 16.616-11.428 0.61046-1.2352 1.2097-2.6434 1.3316-3.1292 0.32245-1.2848 0.60739-0.57076 1.4056 3.5222 1.4401 7.384 1.1942 12.997-0.72741 16.603-1.8697 3.508-5.0135 5.0226-10.786 5.1966-2.4859 0.0749-4.0954-0.0274-4.96-0.31539zm-5.9189-14.525c-1.7937-0.33457-4.8582-2.0304-6.3316-3.5038-0.85149-0.85148-1.9715-2.4103-2.4888-3.4641-0.86836-1.7686-0.94902-2.2357-1.0491-6.0759-0.0973-3.7315-0.0204-4.4732 0.74617-7.2 0.47004-1.672 1.4981-4.6125 2.2846-6.5345 3.5623-8.7056 7.7108-13.991 11.988-15.272 1.0122-0.3033 1.2996-0.24985 2.4 0.44611 3.6496 2.3084 7.0484 8.0857 10.224 17.379 1.1065 3.2383 1.1658 3.6084 0.95869 5.9827-0.78188 8.9633-5.7216 16.328-12.088 18.023-1.6073 0.42789-4.9373 0.53808-6.6434 0.21984zm-49.427 10.945c-2.5547-1.7337-18.118-15.174-21.456-18.529-6.431-6.4643-10.382-13.803-12.384-22.999-0.9425-4.3302-1.0131-14.169-0.13322-18.561 1.355-6.7622 4.3918-14.244 7.9412-19.564 2.2475-3.369 3.0523-3.823 6.847-3.8625 3.2885-0.0342 3.9823-0.32365 5.4743-2.2836 1.8738-2.4616 3.7267-4.2655 5.0284-4.8957 2.0361-0.98566 4.5521-1.3596 6.5714-0.9766 1.8029 0.34191 2.0922 0.46617 5.5099 2.3665 1.9334 1.075 2.4624 1.213 5.6406 1.4713 4.1695 0.33889 5.9922 1.0651 7.5458 3.0063 3.1858 3.9808 5.4938 10.478 5.8605 16.497 0.35092 5.7602-0.87557 10.996-4.0156 17.142l-1.7984 3.52-0.17904 5.6c-0.16788 5.2512-0.23186 5.702-1.0273 7.2379-0.46653 0.90085-1.4432 2.1968-2.1704 2.88-2.7418 2.5758-2.7455 2.5893-4.6511 16.833-1.8546 13.863-1.8236 13.744-3.9754 15.209-1.4263 0.97075-3.1132 0.93764-4.6288-0.0909zm-2.5306-19.964c3.7085-1.684 7.6078-7.0371 10.857-14.905 4.9457-11.976 8.3751-28.216 7.474-35.393-0.98592-7.8519-4.4273-11.797-11.975-13.727-7.5012-1.9185-15.935 0.94309-22.56 7.6546-6.3165 6.3989-9.3846 14.065-8.3423 20.843 1.8869 12.27 7.1179 25.474 12.414 31.335 1.7741 1.9632 4.1491 3.6584 6.1026 4.3558 1.727 0.6166 4.475 0.54191 6.0292-0.16387zm-5.1848-3.9858c-2.1996-1.0243-3.5977-2.3183-5.4821-5.074-3.2774-4.793-5.691-10.138-7.4932-16.594-0.93558-3.3514-0.99854-3.8831-0.8289-6.9991 0.11078-2.0349 0.41124-3.9795 0.75763-4.9037 1.9129-5.1033 7.4231-8.4986 13.245-8.1616 6.0876 0.35241 10.882 4.7261 13.497 12.313 1.203 3.4901 1.5599 8.3001 0.80286 10.82-2.0488 6.8183-6.1222 14.719-8.9253 17.312-2.4798 2.2935-3.1031 2.4375-5.5731 1.2873zm16.684-32.404c-0.47972-1.207-1.5106-3.2244-2.2908-4.4829-6.1336-9.8936-19.136-11.707-27.205-3.795-2.2934 2.2487-2.3687 2.0474-0.5973-1.5967 3.0156-6.2038 9.6711-11.937 15.99-13.774 2.3269-0.67645 6.8029-0.5152 9.506 0.34246 5.2801 1.6753 7.943 6.6096 7.4915 13.881-0.19115 3.0784-1.3603 10.402-1.7854 11.185-0.15393 0.28319-0.54016-0.33005-1.1085-1.76z" fill="#cad8ec"/>
   <path d="m169.74 187.74c-2.0876-0.99655-3.6683-2.3977-4.9389-4.3777-1.5792-2.461-2.7684-3.0354-6.2901-3.038-2.7892-2e-3 -2.989-0.0494-4.16-0.98551-1.7076-1.365-3.2863-3.7569-5.6872-8.6167-9.1902-18.602-6.794-39.148 6.2778-53.827 2.697-3.0286 22.275-19.804 23.911-20.488 1.579-0.66036 3.1205-0.26781 4.5459 1.1576 1.4052 1.4052 1.1624 0.2256 3.146 15.285 1.0549 8.0089 1.7452 12.234 2.1158 12.951 0.30254 0.58504 1.3042 1.8599 2.2258 2.833 2.923 3.0862 3.1514 3.7837 3.3564 10.249l0.17754 5.6 2.1422 4.3043c3.0331 6.0944 3.5426 8.471 3.3754 15.744-0.121 5.2634-0.18174 5.7088-1.1716 8.5912-1.2724 3.7054-3.468 7.81-4.902 9.1642-1.7572 1.6594-2.9227 2.0653-6.7422 2.3479-3.4314 0.25393-3.6254 0.31-6.7669 1.9559-3.0999 1.6241-3.3538 1.6992-6.1142 1.8091-2.5269 0.10061-3.0787 0.0198-4.5009-0.65911zm11.765-6.654c3.9317-0.82559 8.0233-3.3945 9.7414-6.1162 1.2019-1.904 2.3277-5.7073 2.5486-8.6099 0.51825-6.8112-2.3716-21.093-6.4288-31.771-3.7476-9.8637-7.7296-15.783-11.902-17.693-4.5705-2.0924-9.7774 0.37754-14.378 6.8204-1.7964 2.5158-5.2022 9.5864-6.689 13.887-1.4759 4.2689-3.2533 11.583-3.6178 14.888-0.78768 7.1423 1.6251 13.441 7.7275 20.171 3.318 3.6597 7.4415 6.3704 11.892 7.8174 2.3991 0.78007 3.4294 0.93932 6.1465 0.95003 1.7953 7e-3 4.0273-0.14737 4.96-0.34321zm-9.5042-4.3842c-5.0289-1.8862-9.3115-5.1653-12.94-9.9079-1.1389-1.4886-3.54-5.9483-3.54-6.575 0-0.21381 0.90898 0.48087 2.02 1.5437 5.5307 5.2912 13.773 6.2918 20.564 2.4964 3.3918-1.8957 6.909-6.2482 8.6641-10.722 0.47358-1.2071 0.96286-2.0824 1.0873-1.945 0.12443 0.1373 0.53819 1.9056 0.91948 3.9296 1.7926 9.5159 1.0058 15.378-2.505 18.662-2.2162 2.073-4.479 2.8247-8.9894 2.9864-3.0415 0.10902-3.9576 0.0278-5.28-0.46822zm-6.56-14.74c-3.4825-1.1191-6.366-3.5644-7.9103-6.7086-0.85315-1.737-0.88967-2.0087-0.88844-6.6114 1e-3 -4.7942 3e-3 -4.8048 1.3509-8.8 0.74231-2.2 2.2828-5.872 3.4232-8.16 3.2377-6.4956 6.1581-9.8932 9.6499-11.227l1.4199-0.54225 1.5115 0.93449c3.0228 1.8689 6.236 6.9793 9.1839 14.607 1.801 4.6598 2.1238 6.4268 1.7624 9.6455-0.72528 6.4596-4.1548 12.675-8.5501 15.495-2.9714 1.9067-7.5101 2.4731-10.953 1.3668zm-47.741 11.706c-1.3462-0.60274-20.888-17.379-23.37-20.063-14.643-15.833-16.079-39.639-3.591-59.536 2.2698-3.6165 3.3441-4.2564 7.1946-4.2855 2.3661-0.01792 2.9136-0.12967 3.8801-0.79201 0.61891-0.42413 1.4635-1.2881 1.8769-1.92 2.3205-3.5468 4.926-5.176 8.6307-5.3965 2.9167-0.17358 4.3852 0.1936 6.8864 1.7219 2.4982 1.5265 4.0364 1.9792 7.6105 2.2399 4.8851 0.35638 6.5816 1.6389 9.2667 7.0057 4.6328 9.2597 4.4769 18.947-0.46593 28.938l-1.9896 4.0218-0.1892 5.44c-0.22411 6.4438-0.51587 7.332-3.4412 10.477-1.0722 1.1525-2.1245 2.658-2.4195 3.4615-0.28717 0.78208-1.1754 6.462-1.9739 12.622s-1.6044 11.867-1.7908 12.682c-0.65995 2.8851-3.5974 4.5106-6.1146 3.3836zm-2.9788-20.504c1.6769-0.78817 4.4375-3.4707 6.1352-5.9617 5.7984-8.5077 12.011-29.633 12.045-40.96 0.0186-6.1002-1.3524-10.171-4.4553-13.231-3.6197-3.5686-10.694-5.2041-16.859-3.8977-4.8043 1.018-10.824 4.755-14.655 9.0969-2.5357 2.8744-5.1713 7.251-6.2089 10.31-1.8074 5.3291-1.0716 12.293 2.406 22.771 1.8221 5.4897 4.6408 11.57 6.939 14.968 4.3812 6.4784 9.9626 9.1082 14.652 6.9039zm-5.4455-3.8356c-4.3424-2.0221-9.165-9.7086-12.308-19.617l-1.3358-4.2111 0.10469-4.4289c0.09381-3.9686 0.19053-4.6118 0.93071-6.1896 2.6481-5.6448 9.5925-8.6176 15.714-6.7269 3.8937 1.2026 6.7444 3.8299 9.051 8.3414 1.8771 3.6715 2.553 6.412 2.5616 10.386 7e-3 3.3167-0.0631 3.7048-1.2153 6.72-2.9753 7.786-6.1944 13.219-9.0908 15.344-1.8076 1.3261-2.2936 1.3682-4.4118 0.38175zm17.01-31.739c-1.5796-4.712-6.0802-10.238-9.804-12.038-6.9221-3.3454-14.653-2.1726-20.104 3.0498l-2.0466 1.9608 0.54418-1.28c0.29929-0.704 0.62654-1.496 0.72722-1.76 0.53779-1.4102 3.3303-5.2527 5.3238-7.3256 2.5894-2.6925 5.8551-4.9653 9.0464-6.296 1.9508-0.8134 2.5712-0.91324 5.7086-0.91876 6.9142-0.01216 10.471 2.1046 12.375 7.3639 0.96535 2.6669 0.94641 8.1285-0.0471 13.577-0.99649 5.4645-1.0695 5.6198-1.7241 3.6673z" fill="#b3c8e5"/>
   <path d="m169.76 187.74c-2.1723-1.036-3.4738-2.1938-5.0118-4.4586-1.6838-2.4795-3.3046-3.2799-6.0069-2.9663-1.362 0.15808-2.1615 0.0791-3.0788-0.3042-1.7226-0.71973-2.2402-1.2429-4.1665-4.2116-10.32-15.905-11.05-36.442-1.8393-51.754 3.0578-5.0836 6.6093-8.9239 14.023-15.164 2.288-1.9257 6.4543-5.4698 9.2585-7.8758 5.4614-4.6859 6.4892-5.2467 8.5653-4.6735 1.4267 0.39393 2.9852 2.0998 3.2419 3.5483 0.10499 0.59258 0.7731 5.5414 1.4847 10.997 2.0325 15.584 1.8141 14.751 4.655 17.751 2.9041 3.0662 3.1366 3.7792 3.3428 10.249l0.1784 5.6 1.7984 3.52c0.98911 1.936 2.2065 4.744 2.7052 6.24 0.87266 2.6175 0.90726 2.9611 0.91838 9.12 0.0132 7.3029-0.26824 8.6668-2.9118 14.112-2.6981 5.5579-4.2591 6.7012-9.7528 7.1428-3.4262 0.27541-3.6957 0.35289-6.9433 1.9956-3.1988 1.6181-3.5247 1.714-6.1196 1.8018-2.3462 0.0793-2.9713-0.0172-4.3409-0.67035zm12.426-6.8295c2.9667-0.73741 5.0361-1.8032 7.0124-3.6117 4.3554-3.9856 5.6904-11.235 3.9227-21.301-3.1246-17.794-9.56-33.386-15.642-37.897-2.0297-1.5056-3.2991-1.9432-5.6359-1.9432-3.4652 0-7.6875 2.974-10.865 7.6523-4.528 6.6678-9.0866 19.423-10.266 28.724-0.81146 6.4001 1.3484 12.531 6.6288 18.816 6.9252 8.2426 16.039 11.75 24.844 9.5612zm-10.449-4.3947c-5.9623-2.164-11.736-7.3256-14.896-13.318-1.7432-3.3048-1.6295-3.5612 0.6387-1.44 3.6661 3.4285 8.4892 5.1958 13.063 4.7866 7.4247-0.6643 12.721-4.8584 16.178-12.811l1.071-2.4636 0.32758 1.244c1.2435 4.7225 1.8636 11.517 1.351 14.803-1.0243 6.5658-4.6656 9.5056-12.19 9.8417-2.997 0.13386-3.5958 0.0645-5.5427-0.64212zm-5.416-14.305c-2.9878-0.70434-6.6635-3.3932-8.3231-6.0884-1.1653-1.8925-1.5879-4.3468-1.4459-8.3968 0.12342-3.5189 0.26359-4.2677 1.4765-7.888 3.4633-10.337 8.4791-17.705 13.184-19.365 1.4499-0.51154 1.8206-0.40724 3.7502 1.055 2.6393 2.0001 6.3333 8.557 8.8381 15.688 1.3983 3.9807 1.5433 7.0672 0.52296 11.131-1.388 5.5277-5.325 11.163-8.9644 12.831-2.7736 1.2713-6.313 1.676-9.0387 1.0334zm-48.721 11.409c-1.733-0.84229-21.634-18.147-23.934-20.811-8.4103-9.7433-12.342-22.062-11.128-34.869 0.79984-8.4413 3.179-15.581 7.6614-22.991 2.6223-4.3351 3.8375-5.1736 7.4005-5.1066 3.2636 0.06136 4.7197-0.64997 6.4023-3.1276 2.355-3.468 5.2839-5.1167 9.0895-5.1167 2.3128 0 4.156 0.56456 6.2682 1.92 2.1483 1.3786 3.8225 1.8733 7.1297 2.1068 4.6971 0.33164 6.5047 1.47 8.7847 5.5324 2.8072 5.0017 4.014 9.6015 4.0407 15.401 0.0272 5.9298-1.0004 9.8011-4.397 16.564l-1.4092 2.806-0.12499 5.275c-0.14963 6.3148-0.40786 7.0744-3.5802 10.531-1.2675 1.3812-2.2414 2.7689-2.4426 3.4804-0.184 0.65084-1.0538 6.6459-1.9328 13.322-1.6705 12.687-1.8392 13.386-3.5361 14.651-1.0976 0.81808-3.086 1.0181-4.2923 0.43181zm-2.8062-20.413c3.341-1.6686 7.0184-6.6049 9.9335-13.334 4.0356-9.316 7.0896-20.775 8.0943-30.37 0.84851-8.1037-1.208-14.449-5.7329-17.689-3.7077-2.655-10.639-3.8714-15.522-2.7241-4.6251 1.0865-8.7544 3.4042-12.705 7.1308-5.4423 5.134-8.7358 11.445-9.1523 17.538-0.51025 7.4639 4.9135 24.67 10.239 32.48 2.2226 3.2599 5.7364 6.366 8.1971 7.246 1.8786 0.67181 5.0102 0.5413 6.6489-0.27707zm-5.4792-3.9157c-4.3457-2.1287-8.7202-8.9207-12.135-18.841l-1.3397-3.8922v-4.96c0-4.7796 0.03245-5.0261 0.8922-6.7768 1.031-2.0995 3.9218-4.9442 6.0275-5.9312 5.9166-2.7736 12.628-1.011 16.622 4.365 2.8395 3.8225 4.3873 8.0672 4.6758 12.823 0.16997 2.802 0.10861 3.2655-0.78379 5.92-2.6243 7.8063-6.3831 14.465-9.4897 16.81-0.925 0.69839-1.9567 1.2653-2.2927 1.2598-0.336-5e-3 -1.3154-0.35508-2.1764-0.77683zm17.204-31.213c-0.48569-1.6626-3.0194-6.2998-4.2485-7.7758-3.6156-4.3416-8.3302-6.6242-13.682-6.6242-4.7673 0-8.7526 1.6016-12.184 4.8963l-2.0211 1.9407 0.5242-1.2585c1.5548-3.733 3.7956-6.952 6.9067-9.9218 6.2473-5.9637 12.882-7.816 19.783-5.5232 1.6432 0.54592 2.4564 1.0691 3.89 2.5027 2.4491 2.4491 3.2137 4.7628 3.2268 9.7638 9e-3 3.3609-0.94918 10.311-1.6631 12.066l-0.29841 0.73369z" fill="#93b1db"/>
   <path d="m170.03 187.83c-1.8376-0.72798-3.9058-2.5742-5.4834-4.8947-1.3783-2.0274-3.309-2.9369-5.6499-2.6618-3.669 0.43122-5.4731-0.95093-8.7318-6.6898-3.2764-5.77-5.6676-12.815-6.5077-19.171-0.49555-3.7499-0.2133-12.959 0.49578-16.175 1.963-8.9042 6.0668-16.482 12.312-22.735 2.7985-2.802 17.852-15.887 21.272-18.49 0.82269-0.6262 1.2702-0.72512 2.8068-0.62045 1.972 0.13434 2.8403 0.67321 3.67 2.2777 0.2726 0.52716 1.1354 5.943 2.0392 12.801 0.86167 6.5378 1.7366 12.512 1.9444 13.276 0.26084 0.95915 1.0171 2.0856 2.4439 3.6404 3.1043 3.3827 3.3672 4.1616 3.5953 10.651l0.19117 5.44 1.9656 4.0094c3.0368 6.1945 3.4419 7.9445 3.4422 14.871 2.5e-4 6.946-0.33374 8.4901-3.0548 14.123-1.4308 2.9617-2.1983 4.1587-3.2358 5.0468-1.5882 1.3595-2.4997 1.6324-6.8476 2.0502-2.9836 0.2867-3.4552 0.43275-6.4608 2.0012-3.0414 1.5872-3.407 1.6986-5.9015 1.798-2.1037 0.0839-3.0031-0.0302-4.3052-0.54602zm13.21-7.1755c5.8006-1.8328 8.9463-5.3313 10.23-11.377 2.2457-10.579-5.2208-38.359-12.907-48.022-3.0382-3.8198-5.1625-5.1248-8.3669-5.1401-5.0845-0.0243-10.063 4.5093-14.279 13.002-3.3116 6.6718-5.8545 14.622-7.062 22.08-1.1263 6.9558 0.62509 12.953 5.5936 19.152 4.8907 6.1026 10.837 9.9323 17.231 11.098 2.4505 0.44687 6.7689 0.0885 9.5602-0.79348zm-10.202-3.7017c-2.7399-0.69678-7.4419-3.435-10.1-5.8821-2.7341-2.5166-6.0093-7.1654-6.9806-9.9084l-0.43733-1.235 2.0758 1.9418c3.6487 3.4132 8.3285 5.1242 12.886 4.7112 6.9522-0.63 12.01-4.2854 15.458-11.172 0.86715-1.7319 1.581-3.3879 1.5864-3.68 0.0246-1.3432 0.60038 0.67187 1.2197 4.269 1.3161 7.6435 1.1966 11.557-0.46424 15.199-1.261 2.7652-2.8613 4.1533-6.0452 5.244-1.8821 0.64471-7.4566 0.95531-9.1978 0.5125zm-6.3826-14.679c-2.1575-0.45657-5.2343-2.2153-6.7955-3.8843-2.4362-2.6045-3.1647-4.5749-3.3251-8.994-0.12124-3.3402-0.0439-4.0449 0.75465-6.88 1.6419-5.8289 4.9388-13.214 7.3388-16.439 2.2477-3.0202 4.78-5.093 6.9558-5.6938 1.0044-0.27732 1.3041-0.20386 2.5954 0.63616 3.0583 1.9894 6.5338 7.8116 9.4652 15.856 1.1173 3.0661 1.3104 3.9656 1.3057 6.08-0.0184 8.2135-4.7123 16.368-10.714 18.614-1.9992 0.74798-5.7349 1.0952-7.5808 0.70453zm-49.7 10.872c-2.242-1.4224-21.575-18.299-23.311-20.349-6.6069-7.802-10.373-16.859-11.07-26.624-0.48023-6.7264 0.37131-13.805 2.4177-20.096 1.0875-3.3436 4.1795-9.6542 6.1123-12.475 2.1911-3.1976 3.0465-3.6853 6.4637-3.6853 3.4915 0 4.4961-0.50405 6.4494-3.2358 1.8161-2.5399 3.6507-3.9646 5.9756-4.6405 2.4072-0.69979 5.5114-0.47145 7.4774 0.55002 5.4216 2.817 5.4768 2.8364 8.6182 3.0354 1.665 0.10546 3.6456 0.41607 4.4016 0.69024 1.8409 0.6677 3.7468 2.8492 5.4052 6.1868 2.546 5.1236 3.4088 8.8364 3.3776 14.534-0.0275 5.0334-0.95804 8.6703-3.7541 14.673l-2.0831 4.4722-2e-3 3.7072c-3e-3 6.694-0.64227 8.7058-3.8197 12.027-1.0102 1.056-1.9996 2.424-2.1987 3.04s-1.0885 6.592-1.9765 13.28-1.7771 12.565-1.9758 13.059c-0.19867 0.49472-0.8217 1.2507-1.3845 1.68-1.3 0.9916-3.7015 1.0708-5.1229 0.16907zm-3.5802-19.354c4.6866-1.4104 8.9501-7.3117 13.169-18.228 3.4996-9.0548 6.5975-23.1 6.5601-29.743-0.0291-5.1638-1.6591-9.819-4.4368-12.671-1.8346-1.8836-3.8877-2.9754-7.2721-3.8673-8.3105-2.1902-16.764 0.73346-23.855 8.2501-5.1507 5.46-7.9286 11.499-7.9403 17.262-0.0096 4.6953 2.4047 14.532 5.3215 21.682 4.236 10.384 9.4473 16.534 14.77 17.431 2.1693 0.36571 2.0686 0.36891 3.6834-0.11709zm-4.1013-4.6237c-4.5746-2.1642-9.5759-10.328-12.634-20.625-0.97272-3.2745-1.0198-3.6739-0.90533-7.68 0.10893-3.8123 0.20613-4.4016 0.99337-6.0216 2.4819-5.1076 9.0533-8.2391 14.48-6.9 3.1849 0.78594 4.7785 1.7178 7.0435 4.1189 3.3609 3.5628 5.412 8.5643 5.8069 14.16 0.16359 2.3181 0.0797 2.9516-0.70493 5.3239-2.9604 8.9505-6.9314 15.734-10.475 17.895-1.3263 0.80869-1.3185 0.80927-3.6037-0.2718zm17.287-31.096c-0.13478-0.43711-0.80638-1.927-1.4924-3.3109-3.601-7.2636-9.3775-11.133-16.595-11.118-4.7266 0.0104-8.3258 1.4259-11.736 4.6156-1.6767 1.5682-2.0636 1.8123-1.8672 1.178 0.87462-2.8237 3.4934-6.6002 6.9216-9.9814 2.377-2.3444 3.3373-3.0366 6.112-4.4059 3.8078-1.879 6.1456-2.3996 9.349-2.0815 5.4137 0.53749 8.5337 2.4485 10.274 6.2927 1.3085 2.8908 1.4776 7.9945 0.46535 14.045-0.39481 2.36-0.82305 4.5766-0.95164 4.9257-0.2184 0.5929-0.24997 0.58235-0.47887-0.16z" fill="#6792cd"/>
   <path d="m170.67 188.02c-2.0005-0.62575-4.0272-2.242-5.6633-4.5163-1.9631-2.7288-3.1967-3.3495-6.5855-3.3132-3.4008 0.0364-4.3333-0.53768-6.6524-4.0954-3.3641-5.161-6.1733-11.938-7.4968-18.087-0.94358-4.3835-1.1623-12.772-0.45298-17.37 1.5782-10.229 6.7706-19.963 14.287-26.783 3.0892-2.803 17.8-15.362 19.522-16.666 2.0914-1.5842 5.3465-0.91954 6.5094 1.3292 0.29658 0.57352 1.13 5.8002 2.107 13.214 0.88898 6.7459 1.765 12.729 1.9467 13.296 0.18172 0.56704 1.315 2.115 2.5185 3.4399 2.9428 3.2399 3.2426 4.1566 3.5085 10.729l0.21361 5.28 1.7899 3.68c0.98443 2.024 2.1922 4.904 2.6839 6.4 0.84429 2.5688 0.89505 3.0491 0.91321 8.64 0.0226 6.9416-0.38131 8.8462-3.0342 14.309-2.683 5.5252-4.1258 6.5994-9.3192 6.938-3.4367 0.22406-4.8247 0.62009-7.162 2.0435-3.1642 1.927-6.6138 2.4753-9.6325 1.5311zm12.602-7.3309c5.4369-1.8414 7.8728-4.2062 9.7605-9.4758 0.93159-2.6007 1.1309-9.0116 0.42337-13.619-1.6915-11.015-4.9937-21.946-9.1596-30.321-2.7042-5.4363-5.5647-8.9135-8.5237-10.361-6.2751-3.0701-12.923 1.7536-18.504 13.426-2.9416 6.1526-5.5496 14.696-6.5631 21.499-1.1017 7.3958 1.5142 14.293 7.9939 21.077 4.5228 4.735 8.3643 6.9938 14.258 8.3838 2.7757 0.65465 7.3868 0.38227 10.314-0.60928zm-10.431-3.8929c-6.827-1.9243-13.935-8.5356-16.855-15.678l-0.52337-1.28 1.5474 1.5657c5.3398 5.4028 13.162 6.7848 19.96 3.5266 4.0477-1.9398 8.092-6.5919 9.9424-11.437 0.4548-1.1907 0.79532-1.711 0.94251-1.44 0.60262 1.1095 1.6607 8.6827 1.6688 11.944 0.0175 7.0767-2.32 10.918-7.6066 12.502-2.4251 0.72619-7.0199 0.87641-9.0765 0.29674zm-5.9334-14.561c-2.5248-0.44859-5.3931-2.0486-7.1825-4.0065-2.2458-2.4573-2.9792-4.5337-3.171-8.9778-0.13645-3.1617-0.0598-3.8736 0.70602-6.56 1.7553-6.157 4.9517-13.193 7.685-16.917 2.1386-2.9134 5.5017-5.4568 7.2154-5.4568 1.6826 0 4.6927 2.7772 6.8139 6.2866 1.4032 2.3216 3.9281 8.1334 5.181 11.926 0.79668 2.4115 0.87069 2.9965 0.70846 5.6-0.40247 6.4588-3.7951 13.233-8.0383 16.05-2.7991 1.8585-6.5953 2.6449-9.9181 2.0545zm-49.61 11.143c-1.4518-0.84236-21.914-18.581-23.292-20.192-2.7826-3.2526-5.1019-6.7594-6.8181-10.309-3.4067-7.0459-4.6308-12.445-4.6288-20.416 0.0026-10.061 2.2332-18.289 7.2287-26.66 3.2254-5.4053 3.8925-5.8836 8.2055-5.8836 2.3114 0 2.81-0.10463 3.8427-0.80638 0.65268-0.44351 1.7636-1.6559 2.4687-2.6942 1.4602-2.1502 2.5456-3.0158 5.0988-4.066 3.2293-1.3284 6.4739-0.88222 10.184 1.4005 2.1597 1.3289 3.4485 1.6903 7.0358 1.9733 5.0174 0.39571 6.6079 1.5623 9.2193 6.7619 2.6835 5.3431 3.7785 10.975 3.2958 16.951-0.33287 4.1207-1.3235 7.375-3.785 12.434l-2.2353 4.5943-3e-3 5.0057c-3e-3 4.6468-0.0598 5.1273-0.79277 6.7019-0.43431 0.9329-1.5665 2.5169-2.5161 3.52-0.94952 1.0031-1.9522 2.2681-2.2282 2.8111-0.30812 0.60625-1.1372 5.7936-2.1481 13.44-0.93618 7.0813-1.8563 12.899-2.1331 13.488-0.26774 0.56922-0.95646 1.3252-1.5305 1.68-1.1564 0.71467-3.4587 0.85158-4.4684 0.26572zm-2.3858-20.118c1.6978-0.86619 4.2397-3.3922 5.9396-5.9027 4.942-7.2985 9.8923-22.204 11.797-35.52 1.4784-10.336-0.93895-17.762-6.7991-20.885-1.9262-1.0267-5.499-2.1068-8.1563-2.4659-3.5514-0.47989-9.2632 1.0154-13.695 3.5852-2.4763 1.4359-8.3123 7.1084-10.023 9.7419-4.3426 6.6862-5.2078 11.435-3.5839 19.67 1.5755 7.9902 5.5194 18.59 8.8546 23.798 4.7526 7.4214 10.76 10.481 15.666 7.9782zm-5.3763-3.9628c-0.91424-0.42566-2.3212-1.3813-3.1265-2.1236-3.0026-2.7677-6.6325-9.3949-9.0763-16.571l-1.4868-4.3656-0.0041-4.64c-0.0038-4.3684 0.04613-4.7471 0.85354-6.4698 3.0566-6.5214 11.133-9.2681 17.719-6.0259 2.2845 1.1247 4.9657 3.8065 6.4754 6.4771 2.107 3.7271 3.5628 9.7224 3.1688 13.05-0.48151 4.0656-5.5331 15.018-8.3753 18.159-1.6486 1.8218-3.5318 3.2945-4.2032 3.2871-0.15523-2e-3 -1.0302-0.35139-1.9445-0.77706zm16.591-32.368c-1.1281-2.9642-3.1598-6.1357-5.2926-8.262-6.7634-6.7427-17.689-6.867-24.332-0.27677-0.98107 0.97328-1.7838 1.6635-1.7838 1.5338 0-0.63758 2.087-4.4837 3.403-6.2714 3.2527-4.4185 6.3948-7.074 10.753-9.0875 3.0189-1.3948 5.6099-1.8219 8.8268-1.455 5.2836 0.60261 8.4918 2.7252 9.9844 6.6058 1.1051 2.8731 1.2306 7.8865 0.33059 13.209-1.0732 6.3468-1.0313 6.2578-1.8888 4.0044z" fill="#467bc2"/>
   <path d="m170.92 188.11c-2.1562-0.62049-4.5614-2.5492-5.9949-4.8073-0.41007-0.64597-1.2734-1.577-1.9184-2.069-1.0535-0.80356-1.5034-0.91288-4.4236-1.0749-4.0507-0.22478-4.6003-0.57093-7.0361-4.4313-3.4342-5.4426-5.8888-11.487-7.233-17.81-0.94493-4.4452-1.198-12.605-0.52598-16.96 1.7322-11.225 7.1526-20.978 15.8-28.428 10.515-9.0595 17.653-15.086 18.488-15.609 1.95-1.2206 5.0076-0.43715 6.0331 1.5459 0.26211 0.50686 1.186 6.326 2.1226 13.369 0.91217 6.8594 1.8624 12.96 2.1115 13.556 0.24917 0.59632 1.2888 1.9776 2.3102 3.0696 3.0287 3.2377 3.5775 5.0679 3.5808 11.941l2e-3 3.9249 1.9199 3.83c1.056 2.1065 2.28 5.0724 2.72 6.5909 0.72618 2.5059 0.80006 3.3122 0.80006 8.7315 0 6.67-0.32862 8.4746-2.3514 12.913-2.8457 6.2446-4.4336 7.5606-9.6098 7.9646-3.5708 0.27869-5.2906 0.77384-7.5797 2.1823-2.8302 1.7415-6.4665 2.3612-9.2145 1.5704zm10.346-6.8365c8.6529-1.8329 12.749-7.4607 12.69-17.436-0.0658-11.125-5.9728-31.469-11.715-40.345-3.3381-5.1602-6.439-7.4608-10.086-7.4826-5.3156-0.0319-10.258 4.7198-14.874 14.299-3.7492 7.7815-6.8972 19.224-6.8808 25.01 0.0126 4.4318 1.9378 9.673 5.1395 13.992 2.2836 3.0805 6.9694 7.4156 9.8364 9.1004 2.1758 1.2786 6.0741 2.7316 8.3786 3.1228 1.8116 0.30753 5.4195 0.1823 7.5108-0.2607zm-7.785-4.3217c-2.2165-0.46571-6.4899-2.6965-9.0066-4.7017-2.7053-2.1554-5.9033-6.0202-7.5075-9.0731-1.1346-2.1591-1.5449-3.5923-0.67145-2.3453 0.71813 1.0253 3.6656 3.1828 5.7798 4.2309 2.5929 1.2853 5.3653 1.7887 8.596 1.5607 7.0587-0.49814 12.739-4.9659 16.077-12.646 0.73986-1.7019 1.0764-2.1942 1.2097-1.7691 0.64736 2.0648 1.4977 8.7543 1.4995 11.795 5e-3 8.8134-3.4188 12.563-11.945 13.081-1.4506 0.0882-3.2648 0.0284-4.0317-0.13267zm-6.4046-14.749c-3.7532-0.63714-7.7274-3.5536-9.317-6.8373-1.493-3.0841-1.6823-8.1545-0.46954-12.579 3.6866-13.45 11.439-24.099 16.128-22.157 0.53678 0.22235 1.8473 1.3357 2.9123 2.4742 1.5354 1.6413 2.3903 3.0083 4.1289 6.6014 2.9352 6.0663 4.496 10.58 4.496 13.002 0 6.2693-3.4766 14.044-7.6498 17.108-2.8329 2.0796-6.7119 2.9851-10.229 2.3881zm-49.985 10.992c-2.5617-1.734-21.857-18.633-23.496-20.578-5.6661-6.7245-9.2663-14.511-10.57-22.86-0.79556-5.0936-0.51563-13.718 0.59726-18.4 1.5405-6.4814 3.9431-12.141 7.4319-17.505 2.1936-3.3729 3.2161-3.9559 6.8173-3.8875 3.2032 0.06087 4.1019-0.41981 6.3126-3.3766 0.89571-1.198 2.2554-2.5991 3.0214-3.1136 3.2649-2.1927 7.1784-2.4088 10.669-0.58905 5.0799 2.6481 4.9083 2.5903 8.4776 2.8545 5.4492 0.40324 6.8205 1.4286 9.652 7.2169 2.5653 5.244 3.0269 7.3537 3.011 13.76-0.0124 4.9755-0.0878 5.6859-0.88262 8.32-0.47798 1.584-1.763 4.68-2.8556 6.88l-1.9865 4-0.17545 5.6c-0.20169 6.4371-0.42562 7.1314-3.1996 9.92-2.664 2.6781-2.6894 2.771-4.5139 16.534-0.90595 6.8342-1.8603 12.892-2.1207 13.461-0.9596 2.0973-4.293 3.0467-6.1896 1.7629zm-2.4918-19.771c3.5735-1.8156 6.9491-6.1632 9.928-12.787 4.7333-10.525 8.5643-25.922 8.5821-34.493 0.0122-5.8671-1.4675-10.065-4.6638-13.231-2.0512-2.0317-3.441-2.7394-7.6503-3.8955-2.5109-0.6896-7.0584-0.66777-9.76 0.04686-9.524 2.5192-18.434 11.528-20.948 21.18-1.9594 7.5225 2.8037 25.183 9.6572 35.807 2.5119 3.8938 6.3584 7.0904 9.5113 7.9041 1.4215 0.36687 4.1002 0.10053 5.3438-0.53133zm-4.7299-4.0133c-0.90525-0.34813-2.2849-1.1954-3.0659-1.8829-3.1491-2.772-7.0112-9.7316-9.5952-17.291-1.362-3.9845-1.3673-4.0179-1.3702-8.64-0.0026-4.3324 0.05234-4.7576 0.82952-6.4146 2.21-4.7118 6.5176-7.3454 12.014-7.3454 2.1426 0 3.0916 0.1688 4.8299 0.85902 5.4662 2.1705 9.7705 9.3339 10.51 17.491 0.18476 2.039 0.099 2.7057-0.64267 4.9968-3.0151 9.3138-6.7536 15.71-10.735 18.366-0.947 0.6317-0.74573 0.64175-2.7747-0.13854zm16.103-32.95c-3.3373-8.1726-9.7229-12.939-17.338-12.942-4.5358-2e-3 -8.0023 1.2838-11.652 4.321-1.0715 0.8917-1.9463 1.508-1.9441 1.3696 0.01088-0.67545 2.1459-4.3468 3.7334-6.4199 3.1674-4.1362 6.9134-6.9992 11.449-8.7498 2.4669-0.95222 2.7265-0.98728 6.2537-0.84441 4.6251 0.18735 6.8127 0.9447 8.9752 3.1072 3.0724 3.0724 3.8812 8.2124 2.5761 16.372-1.0419 6.5142-0.9837 6.4069-2.0537 3.7865z" fill="#2e69ba"/>
   <path d="m170.63 187.89c-2.1037-0.75092-3.6399-1.9756-5.5299-4.4085-2.2497-2.8959-3.0625-3.3249-6.2994-3.3249-3.7763 0-4.6497-0.53794-7.1566-4.4078-3.4621-5.3443-6.0663-11.833-7.3841-18.399-0.94964-4.7314-1.025-13.891-0.15028-18.261 1.5796-7.892 5.1923-15.362 10.418-21.54 1.6194-1.9148 20.964-18.793 23.708-20.685 1.7309-1.1937 4.789-0.28657 5.811 1.7237 0.37538 0.73836 1.0843 5.112 2.1947 13.54 1.8254 13.855 1.8196 13.834 4.6423 16.817 2.7427 2.8981 2.8413 3.2091 3.0465 9.6143l0.1794 5.6 2.1539 4.3741c2.9916 6.0752 3.421 7.95 3.421 14.937 0 6.813-0.32273 8.3575-2.852 13.649-2.8253 5.9111-3.9922 6.8045-9.4432 7.2308-3.4393 0.26894-3.6514 0.33095-7.1294 2.0848-3.0862 1.5563-3.8872 1.8254-5.76 1.9352-1.5834 0.0928-2.6364-0.0371-3.8697-0.47734zm13.022-7.2208c6.3708-2.2249 9.3633-6.1554 10.276-13.496 0.93674-7.5382-2.6289-24.031-7.8192-36.167-2.5149-5.8805-4.1676-8.5791-7.0637-11.534-2.235-2.2803-2.7995-2.6814-4.4469-3.1598-1.0897-0.31643-2.456-0.48375-3.2341-0.39605-6.4798 0.73038-12.937 9.089-17.406 22.532-2.5163 7.569-3.3504 11.67-3.3735 16.589-0.0176 3.7433 0.0695 4.4192 0.86934 6.7479 1.1094 3.2299 3.337 6.8761 6.2653 10.255 3.7605 4.3397 8.2809 7.321 13.502 8.9047 2.3991 0.72772 3.1185 0.805 6.3838 0.68578 2.8871-0.1054 4.1901-0.31248 6.0474-0.96112zm-9.4074-3.7162c-3.8577-0.58763-8.44-3.2274-12.03-6.9301-2.516-2.595-5.0052-6.0676-5.9016-8.2332l-0.51612-1.2469 1.8184 1.6207c7.864 7.0091 19.733 5.8271 25.967-2.586 1.492-2.0135 3.9261-6.6594 3.963-7.564 0.0452-1.1064 0.59654 1.0304 1.2333 4.7797 1.8687 11.002-0.0688 17.257-5.9922 19.343-1.1556 0.40694-6.2247 1.2308-6.7731 1.1008-0.0926-0.022-0.88839-0.1496-1.7684-0.28364zm-6.88-14.783c-3.9573-0.6066-7.6804-3.2364-9.4935-6.7055-0.83543-1.5985-0.89994-2.0054-1.0064-6.348l-0.11373-4.64 1.4673-4.48c3.3896-10.349 8.5791-18.048 13.093-19.423 1.579-0.48113 2.8568 0.1582 4.9611 2.4822 1.9004 2.0988 3.2339 4.3399 5.1651 8.6802 3.9468 8.8702 4.3314 12.314 2.0949 18.759-2.8796 8.2981-9.0643 12.764-16.167 11.676zm-49.685 11.318c-1.05-0.41527-18.61-15.506-22.007-18.911-6.3052-6.3225-10.338-13.851-12.354-23.06-0.82036-3.7491-0.83125-14.557-0.018688-18.56 1.3302-6.5524 4.25-13.7 7.8835-19.298 1.981-3.0522 3.5066-3.9337 6.3075-3.6446 3.209 0.33119 4.174-0.24903 8.0417-4.8354 2.0135-2.3875 4.2922-3.413 7.5892-3.4154 2.1504-0.0016 2.8183 0.13333 4.1615 0.84058 5.6549 2.9775 5.3387 2.8653 8.8319 3.1331 5.0104 0.38408 6.4771 1.1958 8.5916 4.7551 2.7634 4.6515 4.1137 9.1157 4.3948 14.53 0.32532 6.2659-0.56272 10.151-3.9274 17.18l-2.0509 4.2848v4.6982c0 5.9493-0.3043 6.9273-3.1052 9.9794-1.1422 1.2447-2.2888 2.7705-2.5479 3.3906-0.25913 0.62017-1.179 6.4724-2.0442 13.005s-1.721 12.404-1.9018 13.048c-0.49374 1.7577-2.2509 3.1552-3.932 3.1272-0.74187-0.0123-1.6029-0.12299-1.9135-0.24581zm-2.7761-20.174c6.1512-3.1625 12.646-16.348 16.291-33.072 3.2314-14.828 2.4334-22.614-2.8213-27.529-2.0247-1.8938-3.6267-2.6858-7.3364-3.6269-3.5297-0.89537-5.5812-0.95943-8.8832-0.27739-8.2031 1.6944-16.092 8.1394-20.415 16.679-2.4082 4.7569-2.7617 9.6534-1.2207 16.909 2.5652 12.078 7.7907 23.506 12.88 28.167 3.8746 3.5487 8.0229 4.54 11.506 2.7495zm-4.9532-3.9108c-2.1717-0.88086-3.6997-2.1681-5.5715-4.6937-3.0365-4.0972-6.0533-10.663-7.8816-17.154-0.79956-2.8385-0.8747-3.5238-0.73681-6.72 0.19849-4.6008 0.92808-6.6003 3.2916-9.0212 4.585-4.6962 12.167-5.3501 17.265-1.4889 3.9405 2.985 6.8391 8.7126 7.5399 14.899 0.38993 3.4421 0.0952 4.8379-2.2747 10.772-1.7224 4.3131-3.8656 8.29-5.6643 10.511-0.99032 1.2227-3.7942 3.57-4.2332 3.5439-0.088-5e-3 -0.86828-0.2968-1.734-0.64792zm15.287-34.51c-2.8739-5.8929-6.9913-9.5054-12.415-10.893-1.3862-0.35452-3.3252-0.64245-4.3091-0.63985-4.0466 0.0107-8.5798 1.769-11.676 4.5288-0.98593 0.87874-1.7926 1.4992-1.7926 1.3789 0-0.65682 2.5041-4.8215 4.1122-6.8392 3.0134-3.7808 6.4256-6.3874 10.928-8.3477 2.3627-1.0288 7.2677-1.2721 10.249-0.50839 7.0683 1.8108 9.4776 7.6822 7.7036 18.773-1.0603 6.629-0.88587 6.4703-2.7993 2.5468z" fill="#0049ac"/>
  </g>
 </g>
</svg>
