<?xml version="1.0" encoding="UTF-8"?><svg xmlns="http://www.w3.org/2000/svg" xmlns:xlink="http://www.w3.org/1999/xlink" contentScriptType="text/ecmascript" width="216" zoomAndPan="magnify" contentStyleType="text/css" viewBox="0 0 216 215.999996" height="215.999996" preserveAspectRatio="xMidYMid meet" version="1.0"><defs><filter x="0%" y="0%" width="100%" xmlns:xlink="http://www.w3.org/1999/xlink" xlink:type="simple" xlink:actuate="onLoad" height="100%" id="filter-remove-color" xlink:show="other"><feColorMatrix values="0 0 0 0 1 0 0 0 0 1 0 0 0 0 1 0 0 0 1 0" color-interpolation-filters="sRGB"/></filter><mask id="mask-0"><g filter="url(#filter-remove-color)"><rect x="-21.6" width="259.2" fill="rgb(0%, 0%, 0%)" y="-21.6" height="259.199995" fill-opacity="0.9882"/></g></mask><clipPath id="clip-0"><path d="M 24 17 L 108 17 L 108 77 L 24 77 Z M 24 17 " clip-rule="nonzero"/></clipPath><clipPath id="clip-1"><path d="M 56.164062 0.859375 L 131.191406 50.566406 L 75.269531 134.972656 L 0.242188 85.265625 Z M 56.164062 0.859375 " clip-rule="nonzero"/></clipPath><clipPath id="clip-2"><path d="M 56.164062 0.859375 L 131.191406 50.566406 L 75.269531 134.972656 L 0.242188 85.265625 Z M 56.164062 0.859375 " clip-rule="nonzero"/></clipPath><clipPath id="clip-3"><path d="M 18 75 L 68 75 L 68 115 L 18 115 Z M 18 75 " clip-rule="nonzero"/></clipPath><clipPath id="clip-4"><path d="M 56.164062 0.859375 L 131.191406 50.566406 L 75.269531 134.972656 L 0.242188 85.265625 Z M 56.164062 0.859375 " clip-rule="nonzero"/></clipPath><clipPath id="clip-5"><path d="M 56.164062 0.859375 L 131.191406 50.566406 L 75.269531 134.972656 L 0.242188 85.265625 Z M 56.164062 0.859375 " clip-rule="nonzero"/></clipPath><clipPath id="clip-6"><path d="M 78 73 L 102 73 L 102 96 L 78 96 Z M 78 73 " clip-rule="nonzero"/></clipPath><clipPath id="clip-7"><path d="M 56.164062 0.859375 L 131.191406 50.566406 L 75.269531 134.972656 L 0.242188 85.265625 Z M 56.164062 0.859375 " clip-rule="nonzero"/></clipPath><clipPath id="clip-8"><path d="M 56.164062 0.859375 L 131.191406 50.566406 L 75.269531 134.972656 L 0.242188 85.265625 Z M 56.164062 0.859375 " clip-rule="nonzero"/></clipPath><clipPath id="clip-9"><path d="M 70 79 L 80 79 L 80 97 L 70 97 Z M 70 79 " clip-rule="nonzero"/></clipPath><clipPath id="clip-10"><path d="M 56.164062 0.859375 L 131.191406 50.566406 L 75.269531 134.972656 L 0.242188 85.265625 Z M 56.164062 0.859375 " clip-rule="nonzero"/></clipPath><clipPath id="clip-11"><path d="M 56.164062 0.859375 L 131.191406 50.566406 L 75.269531 134.972656 L 0.242188 85.265625 Z M 56.164062 0.859375 " clip-rule="nonzero"/></clipPath><clipPath id="clip-12"><path d="M 73 76 L 80 76 L 80 80 L 73 80 Z M 73 76 " clip-rule="nonzero"/></clipPath><clipPath id="clip-13"><path d="M 56.164062 0.859375 L 131.191406 50.566406 L 75.269531 134.972656 L 0.242188 85.265625 Z M 56.164062 0.859375 " clip-rule="nonzero"/></clipPath><clipPath id="clip-14"><path d="M 56.164062 0.859375 L 131.191406 50.566406 L 75.269531 134.972656 L 0.242188 85.265625 Z M 56.164062 0.859375 " clip-rule="nonzero"/></clipPath><clipPath id="clip-15"><path d="M 92 95 L 96 95 L 96 99 L 92 99 Z M 92 95 " clip-rule="nonzero"/></clipPath><clipPath id="clip-16"><path d="M 56.164062 0.859375 L 131.191406 50.566406 L 75.269531 134.972656 L 0.242188 85.265625 Z M 56.164062 0.859375 " clip-rule="nonzero"/></clipPath><clipPath id="clip-17"><path d="M 56.164062 0.859375 L 131.191406 50.566406 L 75.269531 134.972656 L 0.242188 85.265625 Z M 56.164062 0.859375 " clip-rule="nonzero"/></clipPath><clipPath id="clip-18"><path d="M 87 97 L 90 97 L 90 101 L 87 101 Z M 87 97 " clip-rule="nonzero"/></clipPath><clipPath id="clip-19"><path d="M 56.164062 0.859375 L 131.191406 50.566406 L 75.269531 134.972656 L 0.242188 85.265625 Z M 56.164062 0.859375 " clip-rule="nonzero"/></clipPath><clipPath id="clip-20"><path d="M 56.164062 0.859375 L 131.191406 50.566406 L 75.269531 134.972656 L 0.242188 85.265625 Z M 56.164062 0.859375 " clip-rule="nonzero"/></clipPath><clipPath id="clip-21"><path d="M 84 97 L 87 97 L 87 102 L 84 102 Z M 84 97 " clip-rule="nonzero"/></clipPath><clipPath id="clip-22"><path d="M 56.164062 0.859375 L 131.191406 50.566406 L 75.269531 134.972656 L 0.242188 85.265625 Z M 56.164062 0.859375 " clip-rule="nonzero"/></clipPath><clipPath id="clip-23"><path d="M 56.164062 0.859375 L 131.191406 50.566406 L 75.269531 134.972656 L 0.242188 85.265625 Z M 56.164062 0.859375 " clip-rule="nonzero"/></clipPath><clipPath id="clip-24"><path d="M 27 72 L 30 72 L 30 76 L 27 76 Z M 27 72 " clip-rule="nonzero"/></clipPath><clipPath id="clip-25"><path d="M 56.164062 0.859375 L 131.191406 50.566406 L 75.269531 134.972656 L 0.242188 85.265625 Z M 56.164062 0.859375 " clip-rule="nonzero"/></clipPath><clipPath id="clip-26"><path d="M 56.164062 0.859375 L 131.191406 50.566406 L 75.269531 134.972656 L 0.242188 85.265625 Z M 56.164062 0.859375 " clip-rule="nonzero"/></clipPath><clipPath id="clip-27"><path d="M 59 116 L 62 116 L 62 119 L 59 119 Z M 59 116 " clip-rule="nonzero"/></clipPath><clipPath id="clip-28"><path d="M 56.164062 0.859375 L 131.191406 50.566406 L 75.269531 134.972656 L 0.242188 85.265625 Z M 56.164062 0.859375 " clip-rule="nonzero"/></clipPath><clipPath id="clip-29"><path d="M 56.164062 0.859375 L 131.191406 50.566406 L 75.269531 134.972656 L 0.242188 85.265625 Z M 56.164062 0.859375 " clip-rule="nonzero"/></clipPath><clipPath id="clip-30"><path d="M 64 76 L 67 76 L 67 80 L 64 80 Z M 64 76 " clip-rule="nonzero"/></clipPath><clipPath id="clip-31"><path d="M 56.164062 0.859375 L 131.191406 50.566406 L 75.269531 134.972656 L 0.242188 85.265625 Z M 56.164062 0.859375 " clip-rule="nonzero"/></clipPath><clipPath id="clip-32"><path d="M 56.164062 0.859375 L 131.191406 50.566406 L 75.269531 134.972656 L 0.242188 85.265625 Z M 56.164062 0.859375 " clip-rule="nonzero"/></clipPath><clipPath id="clip-33"><path d="M 60 62 L 63 62 L 63 66 L 60 66 Z M 60 62 " clip-rule="nonzero"/></clipPath><clipPath id="clip-34"><path d="M 56.164062 0.859375 L 131.191406 50.566406 L 75.269531 134.972656 L 0.242188 85.265625 Z M 56.164062 0.859375 " clip-rule="nonzero"/></clipPath><clipPath id="clip-35"><path d="M 56.164062 0.859375 L 131.191406 50.566406 L 75.269531 134.972656 L 0.242188 85.265625 Z M 56.164062 0.859375 " clip-rule="nonzero"/></clipPath><clipPath id="clip-36"><path d="M 77 73 L 80 73 L 80 76 L 77 76 Z M 77 73 " clip-rule="nonzero"/></clipPath><clipPath id="clip-37"><path d="M 56.164062 0.859375 L 131.191406 50.566406 L 75.269531 134.972656 L 0.242188 85.265625 Z M 56.164062 0.859375 " clip-rule="nonzero"/></clipPath><clipPath id="clip-38"><path d="M 56.164062 0.859375 L 131.191406 50.566406 L 75.269531 134.972656 L 0.242188 85.265625 Z M 56.164062 0.859375 " clip-rule="nonzero"/></clipPath><clipPath id="clip-39"><path d="M 58 65 L 61 65 L 61 69 L 58 69 Z M 58 65 " clip-rule="nonzero"/></clipPath><clipPath id="clip-40"><path d="M 56.164062 0.859375 L 131.191406 50.566406 L 75.269531 134.972656 L 0.242188 85.265625 Z M 56.164062 0.859375 " clip-rule="nonzero"/></clipPath><clipPath id="clip-41"><path d="M 56.164062 0.859375 L 131.191406 50.566406 L 75.269531 134.972656 L 0.242188 85.265625 Z M 56.164062 0.859375 " clip-rule="nonzero"/></clipPath><clipPath id="clip-42"><path d="M 55 70 L 58 70 L 58 73 L 55 73 Z M 55 70 " clip-rule="nonzero"/></clipPath><clipPath id="clip-43"><path d="M 56.164062 0.859375 L 131.191406 50.566406 L 75.269531 134.972656 L 0.242188 85.265625 Z M 56.164062 0.859375 " clip-rule="nonzero"/></clipPath><clipPath id="clip-44"><path d="M 56.164062 0.859375 L 131.191406 50.566406 L 75.269531 134.972656 L 0.242188 85.265625 Z M 56.164062 0.859375 " clip-rule="nonzero"/></clipPath><clipPath id="clip-45"><path d="M 26 45 L 28 45 L 28 47 L 26 47 Z M 26 45 " clip-rule="nonzero"/></clipPath><clipPath id="clip-46"><path d="M 56.164062 0.859375 L 131.191406 50.566406 L 75.269531 134.972656 L 0.242188 85.265625 Z M 56.164062 0.859375 " clip-rule="nonzero"/></clipPath><clipPath id="clip-47"><path d="M 56.164062 0.859375 L 131.191406 50.566406 L 75.269531 134.972656 L 0.242188 85.265625 Z M 56.164062 0.859375 " clip-rule="nonzero"/></clipPath><clipPath id="clip-48"><path d="M 52 65 L 54 65 L 54 67 L 52 67 Z M 52 65 " clip-rule="nonzero"/></clipPath><clipPath id="clip-49"><path d="M 56.164062 0.859375 L 131.191406 50.566406 L 75.269531 134.972656 L 0.242188 85.265625 Z M 56.164062 0.859375 " clip-rule="nonzero"/></clipPath><clipPath id="clip-50"><path d="M 56.164062 0.859375 L 131.191406 50.566406 L 75.269531 134.972656 L 0.242188 85.265625 Z M 56.164062 0.859375 " clip-rule="nonzero"/></clipPath><clipPath id="clip-51"><path d="M 71 93 L 73 93 L 73 96 L 71 96 Z M 71 93 " clip-rule="nonzero"/></clipPath><clipPath id="clip-52"><path d="M 56.164062 0.859375 L 131.191406 50.566406 L 75.269531 134.972656 L 0.242188 85.265625 Z M 56.164062 0.859375 " clip-rule="nonzero"/></clipPath><clipPath id="clip-53"><path d="M 56.164062 0.859375 L 131.191406 50.566406 L 75.269531 134.972656 L 0.242188 85.265625 Z M 56.164062 0.859375 " clip-rule="nonzero"/></clipPath><clipPath id="clip-54"><path d="M 96 94 L 99 94 L 99 97 L 96 97 Z M 96 94 " clip-rule="nonzero"/></clipPath><clipPath id="clip-55"><path d="M 56.164062 0.859375 L 131.191406 50.566406 L 75.269531 134.972656 L 0.242188 85.265625 Z M 56.164062 0.859375 " clip-rule="nonzero"/></clipPath><clipPath id="clip-56"><path d="M 56.164062 0.859375 L 131.191406 50.566406 L 75.269531 134.972656 L 0.242188 85.265625 Z M 56.164062 0.859375 " clip-rule="nonzero"/></clipPath><clipPath id="clip-57"><path d="M 82 97 L 84 97 L 84 100 L 82 100 Z M 82 97 " clip-rule="nonzero"/></clipPath><clipPath id="clip-58"><path d="M 56.164062 0.859375 L 131.191406 50.566406 L 75.269531 134.972656 L 0.242188 85.265625 Z M 56.164062 0.859375 " clip-rule="nonzero"/></clipPath><clipPath id="clip-59"><path d="M 56.164062 0.859375 L 131.191406 50.566406 L 75.269531 134.972656 L 0.242188 85.265625 Z M 56.164062 0.859375 " clip-rule="nonzero"/></clipPath><clipPath id="clip-60"><path d="M 70 86 L 72 86 L 72 87 L 70 87 Z M 70 86 " clip-rule="nonzero"/></clipPath><clipPath id="clip-61"><path d="M 56.164062 0.859375 L 131.191406 50.566406 L 75.269531 134.972656 L 0.242188 85.265625 Z M 56.164062 0.859375 " clip-rule="nonzero"/></clipPath><clipPath id="clip-62"><path d="M 56.164062 0.859375 L 131.191406 50.566406 L 75.269531 134.972656 L 0.242188 85.265625 Z M 56.164062 0.859375 " clip-rule="nonzero"/></clipPath><clipPath id="clip-63"><path d="M 72 68 L 74 68 L 74 70 L 72 70 Z M 72 68 " clip-rule="nonzero"/></clipPath><clipPath id="clip-64"><path d="M 56.164062 0.859375 L 131.191406 50.566406 L 75.269531 134.972656 L 0.242188 85.265625 Z M 56.164062 0.859375 " clip-rule="nonzero"/></clipPath><clipPath id="clip-65"><path d="M 56.164062 0.859375 L 131.191406 50.566406 L 75.269531 134.972656 L 0.242188 85.265625 Z M 56.164062 0.859375 " clip-rule="nonzero"/></clipPath><clipPath id="clip-66"><path d="M 65 76 L 67 76 L 67 78 L 65 78 Z M 65 76 " clip-rule="nonzero"/></clipPath><clipPath id="clip-67"><path d="M 56.164062 0.859375 L 131.191406 50.566406 L 75.269531 134.972656 L 0.242188 85.265625 Z M 56.164062 0.859375 " clip-rule="nonzero"/></clipPath><clipPath id="clip-68"><path d="M 56.164062 0.859375 L 131.191406 50.566406 L 75.269531 134.972656 L 0.242188 85.265625 Z M 56.164062 0.859375 " clip-rule="nonzero"/></clipPath><clipPath id="clip-69"><path d="M 62 64 L 63 64 L 63 67 L 62 67 Z M 62 64 " clip-rule="nonzero"/></clipPath><clipPath id="clip-70"><path d="M 56.164062 0.859375 L 131.191406 50.566406 L 75.269531 134.972656 L 0.242188 85.265625 Z M 56.164062 0.859375 " clip-rule="nonzero"/></clipPath><clipPath id="clip-71"><path d="M 56.164062 0.859375 L 131.191406 50.566406 L 75.269531 134.972656 L 0.242188 85.265625 Z M 56.164062 0.859375 " clip-rule="nonzero"/></clipPath><clipPath id="clip-72"><path d="M 105 50 L 107 50 L 107 52 L 105 52 Z M 105 50 " clip-rule="nonzero"/></clipPath><clipPath id="clip-73"><path d="M 56.164062 0.859375 L 131.191406 50.566406 L 75.269531 134.972656 L 0.242188 85.265625 Z M 56.164062 0.859375 " clip-rule="nonzero"/></clipPath><clipPath id="clip-74"><path d="M 56.164062 0.859375 L 131.191406 50.566406 L 75.269531 134.972656 L 0.242188 85.265625 Z M 56.164062 0.859375 " clip-rule="nonzero"/></clipPath><clipPath id="clip-75"><path d="M 76 65 L 78 65 L 78 67 L 76 67 Z M 76 65 " clip-rule="nonzero"/></clipPath><clipPath id="clip-76"><path d="M 56.164062 0.859375 L 131.191406 50.566406 L 75.269531 134.972656 L 0.242188 85.265625 Z M 56.164062 0.859375 " clip-rule="nonzero"/></clipPath><clipPath id="clip-77"><path d="M 56.164062 0.859375 L 131.191406 50.566406 L 75.269531 134.972656 L 0.242188 85.265625 Z M 56.164062 0.859375 " clip-rule="nonzero"/></clipPath><clipPath id="clip-78"><path d="M 65 80 L 68 80 L 68 82 L 65 82 Z M 65 80 " clip-rule="nonzero"/></clipPath><clipPath id="clip-79"><path d="M 56.164062 0.859375 L 131.191406 50.566406 L 75.269531 134.972656 L 0.242188 85.265625 Z M 56.164062 0.859375 " clip-rule="nonzero"/></clipPath><clipPath id="clip-80"><path d="M 56.164062 0.859375 L 131.191406 50.566406 L 75.269531 134.972656 L 0.242188 85.265625 Z M 56.164062 0.859375 " clip-rule="nonzero"/></clipPath><clipPath id="clip-81"><path d="M 85 22 L 86 22 L 86 24 L 85 24 Z M 85 22 " clip-rule="nonzero"/></clipPath><clipPath id="clip-82"><path d="M 56.164062 0.859375 L 131.191406 50.566406 L 75.269531 134.972656 L 0.242188 85.265625 Z M 56.164062 0.859375 " clip-rule="nonzero"/></clipPath><clipPath id="clip-83"><path d="M 56.164062 0.859375 L 131.191406 50.566406 L 75.269531 134.972656 L 0.242188 85.265625 Z M 56.164062 0.859375 " clip-rule="nonzero"/></clipPath><clipPath id="clip-84"><path d="M 69 87 L 71 87 L 71 89 L 69 89 Z M 69 87 " clip-rule="nonzero"/></clipPath><clipPath id="clip-85"><path d="M 56.164062 0.859375 L 131.191406 50.566406 L 75.269531 134.972656 L 0.242188 85.265625 Z M 56.164062 0.859375 " clip-rule="nonzero"/></clipPath><clipPath id="clip-86"><path d="M 56.164062 0.859375 L 131.191406 50.566406 L 75.269531 134.972656 L 0.242188 85.265625 Z M 56.164062 0.859375 " clip-rule="nonzero"/></clipPath><clipPath id="clip-87"><path d="M 83 100 L 85 100 L 85 102 L 83 102 Z M 83 100 " clip-rule="nonzero"/></clipPath><clipPath id="clip-88"><path d="M 56.164062 0.859375 L 131.191406 50.566406 L 75.269531 134.972656 L 0.242188 85.265625 Z M 56.164062 0.859375 " clip-rule="nonzero"/></clipPath><clipPath id="clip-89"><path d="M 56.164062 0.859375 L 131.191406 50.566406 L 75.269531 134.972656 L 0.242188 85.265625 Z M 56.164062 0.859375 " clip-rule="nonzero"/></clipPath><clipPath id="clip-90"><path d="M 102 91 L 104 91 L 104 93 L 102 93 Z M 102 91 " clip-rule="nonzero"/></clipPath><clipPath id="clip-91"><path d="M 56.164062 0.859375 L 131.191406 50.566406 L 75.269531 134.972656 L 0.242188 85.265625 Z M 56.164062 0.859375 " clip-rule="nonzero"/></clipPath><clipPath id="clip-92"><path d="M 56.164062 0.859375 L 131.191406 50.566406 L 75.269531 134.972656 L 0.242188 85.265625 Z M 56.164062 0.859375 " clip-rule="nonzero"/></clipPath><clipPath id="clip-93"><path d="M 79 96 L 81 96 L 81 98 L 79 98 Z M 79 96 " clip-rule="nonzero"/></clipPath><clipPath id="clip-94"><path d="M 56.164062 0.859375 L 131.191406 50.566406 L 75.269531 134.972656 L 0.242188 85.265625 Z M 56.164062 0.859375 " clip-rule="nonzero"/></clipPath><clipPath id="clip-95"><path d="M 56.164062 0.859375 L 131.191406 50.566406 L 75.269531 134.972656 L 0.242188 85.265625 Z M 56.164062 0.859375 " clip-rule="nonzero"/></clipPath><clipPath id="clip-96"><path d="M 25 50 L 27 50 L 27 52 L 25 52 Z M 25 50 " clip-rule="nonzero"/></clipPath><clipPath id="clip-97"><path d="M 56.164062 0.859375 L 131.191406 50.566406 L 75.269531 134.972656 L 0.242188 85.265625 Z M 56.164062 0.859375 " clip-rule="nonzero"/></clipPath><clipPath id="clip-98"><path d="M 56.164062 0.859375 L 131.191406 50.566406 L 75.269531 134.972656 L 0.242188 85.265625 Z M 56.164062 0.859375 " clip-rule="nonzero"/></clipPath><clipPath id="clip-99"><path d="M 102 63 L 104 63 L 104 64 L 102 64 Z M 102 63 " clip-rule="nonzero"/></clipPath><clipPath id="clip-100"><path d="M 56.164062 0.859375 L 131.191406 50.566406 L 75.269531 134.972656 L 0.242188 85.265625 Z M 56.164062 0.859375 " clip-rule="nonzero"/></clipPath><clipPath id="clip-101"><path d="M 56.164062 0.859375 L 131.191406 50.566406 L 75.269531 134.972656 L 0.242188 85.265625 Z M 56.164062 0.859375 " clip-rule="nonzero"/></clipPath><clipPath id="clip-102"><path d="M 101 91 L 103 91 L 103 92 L 101 92 Z M 101 91 " clip-rule="nonzero"/></clipPath><clipPath id="clip-103"><path d="M 56.164062 0.859375 L 131.191406 50.566406 L 75.269531 134.972656 L 0.242188 85.265625 Z M 56.164062 0.859375 " clip-rule="nonzero"/></clipPath><clipPath id="clip-104"><path d="M 56.164062 0.859375 L 131.191406 50.566406 L 75.269531 134.972656 L 0.242188 85.265625 Z M 56.164062 0.859375 " clip-rule="nonzero"/></clipPath><clipPath id="clip-105"><path d="M 62 119 L 63 119 L 63 121 L 62 121 Z M 62 119 " clip-rule="nonzero"/></clipPath><clipPath id="clip-106"><path d="M 56.164062 0.859375 L 131.191406 50.566406 L 75.269531 134.972656 L 0.242188 85.265625 Z M 56.164062 0.859375 " clip-rule="nonzero"/></clipPath><clipPath id="clip-107"><path d="M 56.164062 0.859375 L 131.191406 50.566406 L 75.269531 134.972656 L 0.242188 85.265625 Z M 56.164062 0.859375 " clip-rule="nonzero"/></clipPath><clipPath id="clip-108"><path d="M 100 92 L 101 92 L 101 93 L 100 93 Z M 100 92 " clip-rule="nonzero"/></clipPath><clipPath id="clip-109"><path d="M 56.164062 0.859375 L 131.191406 50.566406 L 75.269531 134.972656 L 0.242188 85.265625 Z M 56.164062 0.859375 " clip-rule="nonzero"/></clipPath><clipPath id="clip-110"><path d="M 56.164062 0.859375 L 131.191406 50.566406 L 75.269531 134.972656 L 0.242188 85.265625 Z M 56.164062 0.859375 " clip-rule="nonzero"/></clipPath><clipPath id="clip-111"><path d="M 67 84 L 68 84 L 68 85 L 67 85 Z M 67 84 " clip-rule="nonzero"/></clipPath><clipPath id="clip-112"><path d="M 56.164062 0.859375 L 131.191406 50.566406 L 75.269531 134.972656 L 0.242188 85.265625 Z M 56.164062 0.859375 " clip-rule="nonzero"/></clipPath><clipPath id="clip-113"><path d="M 56.164062 0.859375 L 131.191406 50.566406 L 75.269531 134.972656 L 0.242188 85.265625 Z M 56.164062 0.859375 " clip-rule="nonzero"/></clipPath><clipPath id="clip-114"><path d="M 68 92 L 70 92 L 70 93 L 68 93 Z M 68 92 " clip-rule="nonzero"/></clipPath><clipPath id="clip-115"><path d="M 56.164062 0.859375 L 131.191406 50.566406 L 75.269531 134.972656 L 0.242188 85.265625 Z M 56.164062 0.859375 " clip-rule="nonzero"/></clipPath><clipPath id="clip-116"><path d="M 56.164062 0.859375 L 131.191406 50.566406 L 75.269531 134.972656 L 0.242188 85.265625 Z M 56.164062 0.859375 " clip-rule="nonzero"/></clipPath><clipPath id="clip-117"><path d="M 77 98 L 79 98 L 79 99 L 77 99 Z M 77 98 " clip-rule="nonzero"/></clipPath><clipPath id="clip-118"><path d="M 56.164062 0.859375 L 131.191406 50.566406 L 75.269531 134.972656 L 0.242188 85.265625 Z M 56.164062 0.859375 " clip-rule="nonzero"/></clipPath><clipPath id="clip-119"><path d="M 56.164062 0.859375 L 131.191406 50.566406 L 75.269531 134.972656 L 0.242188 85.265625 Z M 56.164062 0.859375 " clip-rule="nonzero"/></clipPath><clipPath id="clip-120"><path d="M 98 95 L 100 95 L 100 97 L 98 97 Z M 98 95 " clip-rule="nonzero"/></clipPath><clipPath id="clip-121"><path d="M 56.164062 0.859375 L 131.191406 50.566406 L 75.269531 134.972656 L 0.242188 85.265625 Z M 56.164062 0.859375 " clip-rule="nonzero"/></clipPath><clipPath id="clip-122"><path d="M 56.164062 0.859375 L 131.191406 50.566406 L 75.269531 134.972656 L 0.242188 85.265625 Z M 56.164062 0.859375 " clip-rule="nonzero"/></clipPath><clipPath id="clip-123"><path d="M 81 102 L 82 102 L 82 103 L 81 103 Z M 81 102 " clip-rule="nonzero"/></clipPath><clipPath id="clip-124"><path d="M 56.164062 0.859375 L 131.191406 50.566406 L 75.269531 134.972656 L 0.242188 85.265625 Z M 56.164062 0.859375 " clip-rule="nonzero"/></clipPath><clipPath id="clip-125"><path d="M 56.164062 0.859375 L 131.191406 50.566406 L 75.269531 134.972656 L 0.242188 85.265625 Z M 56.164062 0.859375 " clip-rule="nonzero"/></clipPath><clipPath id="clip-126"><path d="M 79 98 L 81 98 L 81 99 L 79 99 Z M 79 98 " clip-rule="nonzero"/></clipPath><clipPath id="clip-127"><path d="M 56.164062 0.859375 L 131.191406 50.566406 L 75.269531 134.972656 L 0.242188 85.265625 Z M 56.164062 0.859375 " clip-rule="nonzero"/></clipPath><clipPath id="clip-128"><path d="M 56.164062 0.859375 L 131.191406 50.566406 L 75.269531 134.972656 L 0.242188 85.265625 Z M 56.164062 0.859375 " clip-rule="nonzero"/></clipPath><clipPath id="clip-129"><path d="M 87 100 L 88 100 L 88 102 L 87 102 Z M 87 100 " clip-rule="nonzero"/></clipPath><clipPath id="clip-130"><path d="M 56.164062 0.859375 L 131.191406 50.566406 L 75.269531 134.972656 L 0.242188 85.265625 Z M 56.164062 0.859375 " clip-rule="nonzero"/></clipPath><clipPath id="clip-131"><path d="M 56.164062 0.859375 L 131.191406 50.566406 L 75.269531 134.972656 L 0.242188 85.265625 Z M 56.164062 0.859375 " clip-rule="nonzero"/></clipPath><clipPath id="clip-132"><path d="M 99 32 L 100 32 L 100 33 L 99 33 Z M 99 32 " clip-rule="nonzero"/></clipPath><clipPath id="clip-133"><path d="M 56.164062 0.859375 L 131.191406 50.566406 L 75.269531 134.972656 L 0.242188 85.265625 Z M 56.164062 0.859375 " clip-rule="nonzero"/></clipPath><clipPath id="clip-134"><path d="M 56.164062 0.859375 L 131.191406 50.566406 L 75.269531 134.972656 L 0.242188 85.265625 Z M 56.164062 0.859375 " clip-rule="nonzero"/></clipPath><clipPath id="clip-135"><path d="M 91 66 L 92 66 L 92 67 L 91 67 Z M 91 66 " clip-rule="nonzero"/></clipPath><clipPath id="clip-136"><path d="M 56.164062 0.859375 L 131.191406 50.566406 L 75.269531 134.972656 L 0.242188 85.265625 Z M 56.164062 0.859375 " clip-rule="nonzero"/></clipPath><clipPath id="clip-137"><path d="M 56.164062 0.859375 L 131.191406 50.566406 L 75.269531 134.972656 L 0.242188 85.265625 Z M 56.164062 0.859375 " clip-rule="nonzero"/></clipPath><clipPath id="clip-138"><path d="M 107 46 L 108 46 L 108 47 L 107 47 Z M 107 46 " clip-rule="nonzero"/></clipPath><clipPath id="clip-139"><path d="M 56.164062 0.859375 L 131.191406 50.566406 L 75.269531 134.972656 L 0.242188 85.265625 Z M 56.164062 0.859375 " clip-rule="nonzero"/></clipPath><clipPath id="clip-140"><path d="M 56.164062 0.859375 L 131.191406 50.566406 L 75.269531 134.972656 L 0.242188 85.265625 Z M 56.164062 0.859375 " clip-rule="nonzero"/></clipPath><clipPath id="clip-141"><path d="M 81 102 L 82 102 L 82 103 L 81 103 Z M 81 102 " clip-rule="nonzero"/></clipPath><clipPath id="clip-142"><path d="M 56.164062 0.859375 L 131.191406 50.566406 L 75.269531 134.972656 L 0.242188 85.265625 Z M 56.164062 0.859375 " clip-rule="nonzero"/></clipPath><clipPath id="clip-143"><path d="M 56.164062 0.859375 L 131.191406 50.566406 L 75.269531 134.972656 L 0.242188 85.265625 Z M 56.164062 0.859375 " clip-rule="nonzero"/></clipPath><clipPath id="clip-144"><path d="M 87 102 L 88 102 L 88 103 L 87 103 Z M 87 102 " clip-rule="nonzero"/></clipPath><clipPath id="clip-145"><path d="M 56.164062 0.859375 L 131.191406 50.566406 L 75.269531 134.972656 L 0.242188 85.265625 Z M 56.164062 0.859375 " clip-rule="nonzero"/></clipPath><clipPath id="clip-146"><path d="M 56.164062 0.859375 L 131.191406 50.566406 L 75.269531 134.972656 L 0.242188 85.265625 Z M 56.164062 0.859375 " clip-rule="nonzero"/></clipPath><clipPath id="clip-147"><path d="M 79 96 L 80 96 L 80 98 L 79 98 Z M 79 96 " clip-rule="nonzero"/></clipPath><clipPath id="clip-148"><path d="M 56.164062 0.859375 L 131.191406 50.566406 L 75.269531 134.972656 L 0.242188 85.265625 Z M 56.164062 0.859375 " clip-rule="nonzero"/></clipPath><clipPath id="clip-149"><path d="M 56.164062 0.859375 L 131.191406 50.566406 L 75.269531 134.972656 L 0.242188 85.265625 Z M 56.164062 0.859375 " clip-rule="nonzero"/></clipPath><clipPath id="clip-150"><path d="M 88 96 L 89 96 L 89 98 L 88 98 Z M 88 96 " clip-rule="nonzero"/></clipPath><clipPath id="clip-151"><path d="M 56.164062 0.859375 L 131.191406 50.566406 L 75.269531 134.972656 L 0.242188 85.265625 Z M 56.164062 0.859375 " clip-rule="nonzero"/></clipPath><clipPath id="clip-152"><path d="M 56.164062 0.859375 L 131.191406 50.566406 L 75.269531 134.972656 L 0.242188 85.265625 Z M 56.164062 0.859375 " clip-rule="nonzero"/></clipPath><clipPath id="clip-153"><path d="M 65 81 L 66 81 L 66 82 L 65 82 Z M 65 81 " clip-rule="nonzero"/></clipPath><clipPath id="clip-154"><path d="M 56.164062 0.859375 L 131.191406 50.566406 L 75.269531 134.972656 L 0.242188 85.265625 Z M 56.164062 0.859375 " clip-rule="nonzero"/></clipPath><clipPath id="clip-155"><path d="M 56.164062 0.859375 L 131.191406 50.566406 L 75.269531 134.972656 L 0.242188 85.265625 Z M 56.164062 0.859375 " clip-rule="nonzero"/></clipPath><clipPath id="clip-156"><path d="M 21 95 L 22 95 L 22 97 L 21 97 Z M 21 95 " clip-rule="nonzero"/></clipPath><clipPath id="clip-157"><path d="M 56.164062 0.859375 L 131.191406 50.566406 L 75.269531 134.972656 L 0.242188 85.265625 Z M 56.164062 0.859375 " clip-rule="nonzero"/></clipPath><clipPath id="clip-158"><path d="M 56.164062 0.859375 L 131.191406 50.566406 L 75.269531 134.972656 L 0.242188 85.265625 Z M 56.164062 0.859375 " clip-rule="nonzero"/></clipPath><clipPath id="clip-159"><path d="M 87 101 L 88 101 L 88 103 L 87 103 Z M 87 101 " clip-rule="nonzero"/></clipPath><clipPath id="clip-160"><path d="M 56.164062 0.859375 L 131.191406 50.566406 L 75.269531 134.972656 L 0.242188 85.265625 Z M 56.164062 0.859375 " clip-rule="nonzero"/></clipPath><clipPath id="clip-161"><path d="M 56.164062 0.859375 L 131.191406 50.566406 L 75.269531 134.972656 L 0.242188 85.265625 Z M 56.164062 0.859375 " clip-rule="nonzero"/></clipPath><clipPath id="clip-162"><path d="M 60 64 L 61 64 L 61 65 L 60 65 Z M 60 64 " clip-rule="nonzero"/></clipPath><clipPath id="clip-163"><path d="M 56.164062 0.859375 L 131.191406 50.566406 L 75.269531 134.972656 L 0.242188 85.265625 Z M 56.164062 0.859375 " clip-rule="nonzero"/></clipPath><clipPath id="clip-164"><path d="M 56.164062 0.859375 L 131.191406 50.566406 L 75.269531 134.972656 L 0.242188 85.265625 Z M 56.164062 0.859375 " clip-rule="nonzero"/></clipPath><clipPath id="clip-165"><path d="M 79 75 L 80 75 L 80 76 L 79 76 Z M 79 75 " clip-rule="nonzero"/></clipPath><clipPath id="clip-166"><path d="M 56.164062 0.859375 L 131.191406 50.566406 L 75.269531 134.972656 L 0.242188 85.265625 Z M 56.164062 0.859375 " clip-rule="nonzero"/></clipPath><clipPath id="clip-167"><path d="M 56.164062 0.859375 L 131.191406 50.566406 L 75.269531 134.972656 L 0.242188 85.265625 Z M 56.164062 0.859375 " clip-rule="nonzero"/></clipPath><clipPath id="clip-168"><rect x="0" width="132" y="0" height="135"/></clipPath></defs><g mask="url(#mask-0)"><g transform="matrix(1, 0, 0, 1, 41, 46)"><g id="source-5" clip-path="url(#clip-168)"><g clip-path="url(#clip-0)"><g clip-path="url(#clip-1)"><g clip-path="url(#clip-2)"><path fill="rgb(100%, 100%, 100%)" d="M 82.027344 29.0625 L 82.152344 28.996094 L 82.054688 28.921875 Z M 77.894531 36.402344 C 77.792969 36.410156 77.636719 36.382812 77.585938 36.445312 C 77.300781 36.773438 78.074219 37.273438 78.066406 37.007812 C 78.0625 36.761719 78.078125 36.542969 77.894531 36.402344 Z M 74.84375 41.085938 C 74.574219 41.4375 74.1875 41.785156 74.703125 42.054688 C 74.832031 42.121094 75.078125 42.152344 75.171875 42.074219 C 75.492188 41.816406 75.140625 41.910156 74.84375 41.085938 Z M 50.128906 51.671875 C 50.296875 51.355469 50.503906 51.027344 50.578125 50.601562 C 50.671875 50.058594 49.65625 49.710938 49.707031 50.558594 C 49.726562 50.933594 49.539062 51.398438 50.128906 51.671875 Z M 91.320312 66.925781 C 91.992188 65.785156 92.480469 65.238281 91.855469 64.722656 C 91.40625 64.757812 87.785156 65.644531 87.457031 66.203125 C 87.125 66.765625 86.597656 67.011719 86.0625 67.214844 C 85.804688 67.976562 86.46875 68.703125 85.230469 70.609375 C 84.9375 71.0625 84.84375 71.664062 84.402344 72.074219 C 82.261719 74.046875 83.878906 75.777344 82.128906 76.222656 C 80.953125 74.683594 79.320312 73.269531 82.171875 70.988281 C 81.65625 69.644531 82.757812 68.949219 83.382812 68.09375 C 81.777344 65.832031 79.496094 66.0625 78.675781 63.960938 C 78.429688 63.324219 77.621094 63.324219 77.835938 62.527344 C 78.300781 60.808594 76.191406 61.988281 75.660156 59.4375 C 75.039062 56.457031 71.511719 53.726562 71.050781 56.054688 C 70.960938 56.515625 70.953125 57.046875 70.722656 57.429688 C 69.519531 59.433594 70.546875 58.886719 69.441406 60.761719 C 68.210938 59.800781 68.832031 60.027344 67.15625 59.835938 C 66.757812 60.4375 66.367188 61.027344 65.957031 61.648438 C 66.0625 64.011719 66.070312 63.265625 65.777344 64.367188 C 65.425781 64.488281 65.273438 64.359375 65.195312 64.089844 C 63.851562 59.28125 63.902344 60.726562 64.871094 57.640625 C 63.992188 56.28125 64.023438 55.78125 65.863281 55.996094 C 66.085938 56.671875 66.140625 57.164062 66.457031 57.171875 C 66.804688 57.183594 66.988281 56.410156 66.921875 56.160156 C 66.101562 53.015625 67.5 53.746094 65.597656 52.597656 C 64.261719 52.859375 64.207031 54.089844 63.449219 54.996094 C 63.425781 55.023438 63.335938 54.996094 63.28125 54.996094 C 62.796875 54.363281 62.875 53.367188 61.921875 52.921875 C 60.792969 53.707031 61.210938 53.394531 60.339844 54.140625 C 59.269531 53.476562 58.71875 52.734375 57.6875 53.445312 C 57.015625 53.910156 55.554688 53.09375 55.777344 54.371094 C 55.988281 55.589844 55.988281 55.589844 55.722656 56.570312 C 56.125 56.808594 56.292969 56.105469 56.832031 56.265625 C 57.648438 56.507812 58.054688 57.847656 58.078125 58.289062 C 58.113281 58.886719 58.941406 58.894531 58.722656 59.347656 C 58.460938 59.867188 56.234375 58.695312 57.1875 58.054688 C 57.355469 57.9375 57.058594 57.554688 56.890625 57.636719 C 55.929688 58.113281 54.789062 57.957031 53.84375 58.527344 C 52.730469 59.199219 53.003906 57.894531 50.964844 59.015625 C 49.558594 59.785156 50.796875 63.0625 54.136719 62.859375 C 55.757812 62.761719 54.789062 62.101562 57.125 61.828125 C 57.582031 61.777344 57.898438 62.175781 57.355469 62.574219 C 56.636719 63.097656 55.796875 63.417969 55.078125 63.972656 C 54.605469 64.335938 53.917969 64.589844 53.21875 64.285156 C 52.644531 64.035156 52.339844 64.523438 51.640625 65.210938 C 51.390625 64.921875 51.199219 64.695312 50.941406 64.394531 C 49.484375 64.921875 50.039062 64.730469 48.792969 65.109375 C 47.394531 68.417969 50.546875 66.941406 50.878906 68.738281 C 51.40625 71.5625 53.101562 70.082031 54.570312 71.195312 C 52.371094 72.796875 52.894531 72.214844 51.988281 72.828125 C 51.535156 73.132812 50.421875 74.515625 49.058594 74.214844 C 48.027344 73.984375 47.242188 74.605469 46.605469 75.410156 C 46.167969 75.359375 45.757812 75.316406 45.304688 75.265625 C 45.195312 74.835938 45.09375 74.433594 44.996094 74.03125 C 44.53125 72.144531 41.378906 73.082031 41.167969 73.367188 C 40.738281 73.953125 40.136719 74.15625 39.464844 74.265625 C 36.691406 74.710938 38.238281 76.28125 34.101562 76.917969 C 33.566406 76.222656 33.027344 75.527344 32.472656 74.808594 C 32.671875 74.398438 32.855469 74.035156 33.019531 73.699219 C 32.382812 72.308594 30.492188 72.371094 28.75 72.136719 C 28.125 69.46875 27.464844 71.417969 27.007812 69.097656 C 26.8125 68.089844 26.339844 68.464844 26.460938 67.308594 C 26.675781 65.242188 24.425781 66.386719 24.871094 64.863281 C 25.316406 63.320312 24.859375 63.832031 25.109375 62.054688 C 25.238281 61.15625 25.0625 60.328125 24.507812 59.597656 C 24.679688 59.1875 24.578125 58.535156 25.226562 58.515625 C 26.023438 58.492188 26.984375 61.203125 26.816406 62.082031 C 26.761719 62.390625 27.441406 64.285156 27.691406 64.570312 C 28.191406 65.125 28.429688 65.796875 28.632812 66.484375 C 29.183594 68.328125 30.511719 69.644531 31.667969 71.082031 C 33.882812 71.816406 30.882812 72.339844 35.492188 72.898438 C 36.128906 71.417969 35.8125 72.003906 36.664062 70.722656 C 36.359375 70.238281 36.046875 69.738281 35.699219 69.183594 C 35.414062 69.078125 35.085938 68.914062 34.734375 68.84375 C 31.046875 68.113281 29.253906 62.925781 29.121094 61.011719 C 29.105469 60.777344 29.003906 60.457031 29.117188 60.3125 C 29.625 59.652344 29.433594 58.8125 29.742188 58.132812 C 30.132812 57.277344 30.210938 56.40625 30.160156 55.472656 C 29.910156 55.246094 29.648438 55.011719 29.414062 54.800781 C 29.25 53.746094 30.085938 53.453125 30.765625 52.949219 C 29.863281 51.8125 30.773438 51.03125 30.820312 50.136719 C 30.894531 48.628906 31.519531 49.136719 31.945312 47.566406 C 32.628906 45.03125 35.902344 44.320312 36.332031 43.996094 C 39 41.960938 40.5625 43.863281 40.882812 42.386719 C 40.664062 41.828125 40.070312 41.761719 39.542969 41.453125 C 39.617188 41.167969 39.613281 40.796875 39.785156 40.660156 C 40.105469 40.394531 40.578125 40.25 40.964844 40.480469 C 42.292969 41.265625 43.746094 41.886719 44.628906 43.273438 C 45 43.859375 45.550781 44.199219 46.269531 44.226562 C 47.324219 44.269531 46.414062 43.15625 46.9375 42.484375 C 47.511719 41.753906 47.25 40.914062 47.132812 40.125 C 47.019531 39.328125 46.96875 39.332031 47.914062 38.777344 C 48.421875 39.566406 48.9375 40.363281 49.441406 41.160156 C 49.777344 41.695312 48.984375 42.183594 50.664062 43.402344 C 51.25 43.828125 51.773438 44.296875 52.222656 44.878906 C 52.730469 45.535156 53.683594 45.597656 54.214844 46.34375 C 56.496094 49.535156 58.460938 47.300781 57.25 45.617188 C 56.964844 45.222656 56.65625 45.582031 55.46875 42.964844 C 54.863281 41.613281 55.714844 40.734375 55.136719 38.375 C 54.785156 36.9375 54.980469 35.417969 55.242188 33.945312 C 55.863281 33 56.035156 31.816406 56.953125 31.015625 C 58.078125 30.035156 58.613281 27.460938 59.058594 26.902344 C 60.703125 24.839844 61.003906 22.992188 62.414062 22.324219 C 63.378906 21.871094 63.511719 20.671875 65.308594 19.953125 C 67.863281 18.929688 68.0625 17.1875 71.441406 17.394531 C 73.128906 17.5 75.792969 17.945312 76.558594 19.449219 C 77.039062 20.394531 79.058594 20.511719 79.839844 26.371094 C 79.449219 27.585938 80.050781 28.890625 79.5 30.101562 C 79.195312 30.777344 81.035156 30.804688 80.925781 29.394531 C 80.796875 27.742188 80.460938 28.007812 81.382812 26.765625 C 80.882812 25.789062 80.984375 26.085938 80.984375 25.660156 C 81.390625 25.292969 81.859375 24.835938 82.367188 24.433594 C 82.730469 24.148438 83.195312 24.65625 83.226562 25.058594 C 83.484375 28.265625 83.503906 27.804688 82.027344 30.027344 C 82.308594 30.523438 82.570312 30.976562 82.859375 31.484375 C 82.386719 32.085938 81.949219 32.644531 81.441406 33.289062 C 81.527344 33.511719 81.648438 33.828125 81.777344 34.164062 C 81.214844 35.4375 80.878906 36.652344 80.199219 36.160156 C 79.664062 35.773438 79.84375 35.515625 80.183594 33.726562 C 79.789062 33.207031 79.386719 32.925781 78.695312 33.269531 C 78.925781 33.660156 79.136719 34.011719 79.347656 34.363281 C 79.132812 35.097656 78.859375 35.804688 79.128906 36.613281 C 79.519531 37.789062 77.328125 37.664062 78.226562 38.90625 C 78.566406 39.371094 79.199219 39.769531 79.019531 40.410156 C 78.597656 41.910156 77.328125 39.75 76.753906 39.066406 C 75.964844 38.128906 74.527344 39.964844 75.789062 40.960938 C 77.4375 42.257812 78.214844 41.148438 79.132812 42.652344 C 77.433594 43.625 78.136719 43.285156 76.46875 43.894531 C 76.625 44.371094 76.777344 44.820312 76.96875 45.394531 C 75.855469 47.285156 75.789062 47.09375 76.113281 48.574219 C 75.730469 48.847656 75.347656 49.117188 74.890625 49.441406 C 75.425781 50.429688 75.390625 51.765625 76.914062 51.921875 C 77.25 51.210938 77.167969 51.382812 77.320312 51.097656 C 77.773438 50.800781 78.679688 51.886719 79.015625 50.90625 C 79.355469 49.90625 81.195312 46.039062 82.128906 44.820312 C 81.734375 44.089844 81.765625 43.269531 81.945312 42.429688 C 81.988281 42.207031 82.171875 40.371094 82.203125 40.300781 C 85.871094 30.394531 83.765625 31.503906 90.078125 27.660156 C 92.367188 26.265625 93.21875 26.792969 94.320312 26.398438 C 94.976562 27.003906 95.621094 27.539062 96.191406 28.136719 C 97.417969 29.433594 97.03125 30.144531 98.171875 30.8125 C 99.472656 31.574219 97.761719 33.117188 99.316406 33.609375 C 100.433594 33.964844 100.4375 33.957031 101.164062 34.761719 C 100.96875 36.441406 101.046875 35.292969 102.410156 39.714844 C 103.976562 44.796875 101.53125 52.046875 100.332031 53.539062 C 100.304688 54.550781 99.285156 54.953125 98.957031 55.789062 C 98.875 55.992188 98.546875 56.101562 98.472656 56.304688 C 97.835938 58.027344 96.546875 57.96875 95.984375 58.746094 C 95.0625 60.03125 94.527344 58.8125 92.660156 61.046875 C 92.171875 61.628906 93.171875 62.160156 93.617188 62.125 C 96.847656 61.878906 92.789062 62.683594 99.144531 61.246094 C 99.398438 60.867188 99.710938 60.390625 100.050781 59.882812 C 99.957031 59.703125 99.851562 59.492188 99.746094 59.285156 C 100.292969 57.976562 102.519531 56.453125 102.871094 56.257812 C 104.410156 55.414062 104.515625 54.144531 106.441406 53.550781 C 107.027344 55.59375 107.699219 54.292969 107.441406 56.046875 C 107.152344 56.5 106.503906 56.410156 106.175781 56.941406 C 105.640625 57.804688 105.566406 57.753906 104.347656 57.738281 C 102.925781 59.558594 101.476562 58.515625 101.0625 60.398438 C 101.023438 60.574219 100.898438 60.800781 100.964844 60.917969 C 101.730469 62.199219 99.9375 63.746094 100.199219 64.53125 C 100.273438 64.753906 100.125 64.800781 99.949219 64.867188 C 98.992188 65.234375 99.171875 65.96875 98.15625 65.410156 C 97.851562 65.242188 97.558594 65.046875 97.171875 64.808594 C 96.820312 65.519531 96.515625 66.140625 96.238281 66.710938 C 95.777344 66.90625 96 66.671875 94.851562 65.910156 C 94.417969 65.929688 92.917969 68.457031 91.316406 66.890625 L 91.320312 66.925781 " fill-opacity="1" fill-rule="nonzero"/></g></g></g><g clip-path="url(#clip-3)"><g clip-path="url(#clip-4)"><g clip-path="url(#clip-5)"><path fill="rgb(100%, 100%, 100%)" d="M 21.730469 96.238281 C 22.464844 96.730469 22.4375 95.742188 23.359375 96.417969 C 23.042969 97.050781 23.074219 96.828125 23.394531 97.257812 C 23.644531 96.996094 24.019531 96.65625 23.300781 96.433594 C 24.035156 95.167969 23.410156 95.753906 22.660156 92.570312 C 20.519531 91.152344 20.851562 91.226562 19.195312 91.046875 C 18.59375 90.976562 18.636719 90.824219 18.578125 90.703125 C 18.675781 90.597656 18.765625 90.421875 18.898438 90.371094 C 25.195312 87.921875 20.601562 88.769531 25.929688 88.144531 C 27.890625 87.914062 27.675781 87.289062 29.425781 86.476562 C 30.203125 86.117188 30.304688 86.4375 32.378906 86.808594 C 34.074219 87.113281 34.183594 86.199219 35.3125 85.488281 C 37.203125 84.316406 36.039062 82.832031 38.621094 81.957031 C 42.089844 80.773438 41.597656 80.652344 41.40625 79.058594 C 40.828125 78.679688 40.789062 79.605469 40.25 79.308594 C 40.019531 79.183594 39.59375 79.410156 39.257812 79.480469 C 38.542969 78.953125 38.195312 78.296875 38.332031 77.367188 C 38.371094 77.066406 38.117188 76.726562 38.003906 76.421875 C 39.746094 74.96875 40.796875 76.898438 42.429688 75.621094 C 43.019531 75.636719 43.613281 75.65625 44.304688 75.675781 C 44.308594 77.15625 44.640625 78.441406 42.964844 78.875 C 42.707031 78.941406 42.476562 79.222656 42.78125 79.664062 C 43.339844 79.34375 44.636719 78.652344 45.128906 78.539062 C 46.785156 78.164062 47.140625 76.027344 50.816406 75.867188 C 51.695312 75.824219 52.589844 76.082031 53.46875 76.113281 C 54.351562 76.148438 55.246094 75.960938 56.144531 76.0625 C 56.320312 76.082031 56.53125 76.042969 56.675781 76.121094 C 57.851562 76.742188 59.191406 76.773438 60.425781 77.164062 C 62.183594 77.722656 62.171875 78.53125 62.75 79.039062 C 63.382812 79.585938 64.226562 79.988281 64.636719 80.660156 C 67.699219 85.667969 66.238281 87.5 67.808594 89.730469 C 67.941406 89.921875 67.699219 90.222656 67.4375 90.171875 C 67.183594 90.121094 66.9375 89.992188 66.703125 89.898438 C 66.28125 90.296875 66.726562 90.601562 66.820312 90.871094 C 67.390625 92.472656 67.113281 91.851562 67.671875 96.007812 C 67.867188 95.710938 66.566406 97.179688 66.691406 99.269531 C 66.738281 100.046875 66.78125 100.828125 66.34375 101.542969 C 66.257812 101.6875 66.214844 101.914062 66.261719 102.066406 C 66.449219 102.679688 66.167969 103.246094 66.144531 103.839844 C 66.109375 104.660156 65.691406 105.175781 64.964844 105.570312 C 65.242188 105.945312 65.664062 106.277344 65.738281 106.671875 C 65.839844 107.222656 66.3125 107.421875 66.566406 107.949219 C 66.46875 108.253906 66.34375 108.640625 66.21875 109.03125 C 66.382812 109.273438 66.554688 109.511719 66.675781 109.683594 C 66.621094 110.460938 66.566406 111.167969 66.515625 111.871094 C 63.292969 114.527344 64.582031 112.601562 63.070312 114.53125 C 62.636719 115.085938 62.175781 114.589844 61.910156 114.351562 C 61.71875 114.183594 61.71875 114.183594 61.09375 114.273438 C 61 114.015625 61 114.175781 61 113.585938 C 59.710938 113.339844 60.191406 113.445312 59.160156 113.164062 C 58.820312 113.460938 58.503906 113.734375 58.105469 114.082031 C 57.441406 113.921875 56.664062 114.195312 55.933594 113.820312 C 55.84375 113.773438 55.671875 113.777344 55.589844 113.835938 C 54.507812 114.617188 52.675781 113.558594 51.964844 114.34375 C 51.875 114.441406 51.613281 114.46875 51.464844 114.421875 C 50.003906 113.925781 47.761719 114.390625 45.648438 112.929688 C 43.003906 111.105469 41.679688 112.480469 36.039062 106.582031 C 32.851562 103.25 34.722656 104.667969 32.882812 102.085938 C 31.980469 100.816406 31.515625 101.828125 30.347656 101.015625 C 28.105469 99.453125 27.703125 99.367188 27.03125 99.375 C 26.796875 99.386719 26.503906 99.410156 26.335938 99.289062 C 25.429688 98.648438 24.257812 98.824219 23.324219 98.277344 C 23.136719 98.164062 22.867188 98.1875 22.625 98.144531 C 22.476562 97.804688 22.355469 97.472656 22.199219 97.15625 C 22.050781 96.851562 21.65625 96.652344 21.792969 96.222656 L 21.730469 96.238281 " fill-opacity="1" fill-rule="nonzero"/></g></g></g><g clip-path="url(#clip-6)"><g clip-path="url(#clip-7)"><g clip-path="url(#clip-8)"><path fill="rgb(100%, 100%, 100%)" d="M 81.683594 93.480469 C 82.160156 90.644531 80.082031 88.964844 79.539062 87.636719 C 79.007812 86.332031 77.960938 80.6875 81.515625 77.695312 C 82.960938 76.480469 83.992188 76.121094 84.957031 74.605469 C 85.808594 73.257812 88.644531 72.65625 90.148438 73.640625 C 90.757812 74.039062 91.453125 73.984375 92.0625 73.894531 C 93.167969 73.726562 94.199219 74.074219 95.261719 74.121094 C 96.242188 74.164062 96.871094 75.660156 99.195312 75.402344 C 100.53125 76.917969 100.789062 77.109375 100.683594 77.476562 C 100.472656 78.203125 101.304688 78.757812 101.105469 79.316406 C 100.691406 80.492188 101.070312 81.246094 101.785156 83.65625 C 101.484375 84.433594 100.765625 84.316406 99.757812 87.734375 C 99.046875 90.15625 93.734375 94.652344 89.785156 95.570312 C 88.136719 95.953125 88.464844 95.410156 86.066406 95.710938 C 84.953125 95.847656 84.777344 95.53125 81.683594 93.480469 " fill-opacity="1" fill-rule="nonzero"/></g></g></g><g clip-path="url(#clip-9)"><g clip-path="url(#clip-10)"><g clip-path="url(#clip-11)"><path fill="rgb(100%, 100%, 100%)" d="M 78.015625 92.554688 C 78.765625 95.015625 78.625 94.152344 79.046875 95.324219 C 79.335938 96.140625 78.261719 96.792969 78.171875 96.308594 C 77.875 94.722656 76.808594 95.101562 74.402344 93.015625 C 74.902344 92.53125 75.570312 92.128906 75.441406 91.207031 C 75.195312 90.882812 74.910156 90.507812 74.613281 90.117188 C 71.851562 89.355469 74.085938 90.042969 70.554688 90.316406 C 70.367188 89.808594 70.316406 89.488281 70.773438 89.035156 C 71.535156 88.28125 72.335938 87.613281 73.25 87.105469 C 73.269531 85.171875 73.667969 85.453125 71.8125 82.957031 C 72.078125 82.496094 72.550781 82.414062 73.003906 82.277344 C 73.734375 82.054688 73.617188 81.429688 73.683594 79.785156 C 76.9375 79.636719 74.886719 80.027344 77.390625 81.859375 C 79.324219 83.277344 75.96875 84.039062 76.910156 87.058594 C 77.046875 87.492188 76.195312 88.324219 77.078125 89.253906 C 77.957031 90.183594 77.472656 91.246094 78.59375 91.542969 C 78.722656 91.574219 78.878906 91.785156 78.886719 91.921875 C 78.910156 92.21875 78.660156 92.277344 78.414062 92.324219 C 78.304688 92.34375 78.207031 92.441406 78.015625 92.554688 " fill-opacity="1" fill-rule="nonzero"/></g></g></g><g clip-path="url(#clip-12)"><g clip-path="url(#clip-13)"><g clip-path="url(#clip-14)"><path fill="rgb(100%, 100%, 100%)" d="M 76.3125 76.832031 C 76.761719 76.5625 77.117188 76.347656 77.488281 76.128906 C 78.113281 76.199219 78.527344 76.652344 78.992188 77 C 79.179688 77.792969 79.765625 78.492188 79.464844 79.425781 C 78.398438 79.386719 77.8125 78.460938 76.46875 78.546875 C 76.027344 78.578125 73.339844 76.132812 74.046875 76.050781 C 74.507812 75.996094 74.445312 76.023438 76.3125 76.832031 " fill-opacity="1" fill-rule="nonzero"/></g></g></g><g clip-path="url(#clip-15)"><g clip-path="url(#clip-16)"><g clip-path="url(#clip-17)"><path fill="rgb(100%, 100%, 100%)" d="M 92.273438 96.839844 C 92.613281 95.765625 93.832031 95.925781 94.273438 95.042969 C 97.382812 96.5 94.417969 96.582031 94.421875 98.035156 C 94.421875 98.429688 93.714844 98.566406 93.449219 98.253906 C 93.070312 97.816406 92.710938 97.367188 92.273438 96.839844 " fill-opacity="1" fill-rule="nonzero"/></g></g></g><g clip-path="url(#clip-18)"><g clip-path="url(#clip-19)"><g clip-path="url(#clip-20)"><path fill="rgb(100%, 100%, 100%)" d="M 88.546875 97.164062 C 90.105469 97.683594 89.878906 97.839844 89.964844 99.96875 C 89.703125 100.257812 89.429688 100.558594 89.195312 100.820312 C 88.570312 100.847656 88.476562 100.464844 87.601562 98.847656 C 87.722656 98.230469 87.792969 97.5 88.582031 97.152344 L 88.546875 97.164062 " fill-opacity="1" fill-rule="nonzero"/></g></g></g><g clip-path="url(#clip-21)"><g clip-path="url(#clip-22)"><g clip-path="url(#clip-23)"><path fill="rgb(100%, 100%, 100%)" d="M 86.710938 98.34375 C 87.222656 99.503906 86.574219 100.117188 86.359375 100.753906 C 86.277344 101.003906 86.402344 101.304688 86.246094 101.621094 C 85.273438 100.972656 85.75 100.738281 84.914062 99.929688 C 84.234375 99.261719 84.347656 97.148438 85.328125 97.625 C 85.804688 97.859375 86.269531 98.113281 86.710938 98.34375 " fill-opacity="1" fill-rule="nonzero"/></g></g></g><g clip-path="url(#clip-24)"><g clip-path="url(#clip-25)"><g clip-path="url(#clip-26)"><path fill="rgb(100%, 100%, 100%)" d="M 29.648438 72.886719 C 29.78125 73.605469 29.957031 74.339844 29.378906 75.085938 C 28.996094 74.992188 27.269531 74.828125 28 73.671875 C 28.371094 73.09375 28.785156 72.605469 29.648438 72.886719 " fill-opacity="1" fill-rule="nonzero"/></g></g></g><g clip-path="url(#clip-27)"><g clip-path="url(#clip-28)"><g clip-path="url(#clip-29)"><path fill="rgb(100%, 100%, 100%)" d="M 59.375 117.734375 C 59.722656 116.898438 60.308594 116.496094 61.183594 116.546875 C 62.117188 117.402344 60.785156 118.699219 60.144531 118.925781 C 59.820312 118.90625 60.003906 118.46875 59.820312 118.28125 C 59.664062 118.113281 59.53125 117.929688 59.375 117.734375 " fill-opacity="1" fill-rule="nonzero"/></g></g></g><g clip-path="url(#clip-30)"><g clip-path="url(#clip-31)"><g clip-path="url(#clip-32)"><path fill="rgb(100%, 100%, 100%)" d="M 65.726562 76.816406 C 65.347656 77.632812 66.488281 78.191406 66.675781 79.882812 C 66.011719 80.3125 66.558594 79.121094 65.621094 79.027344 C 65.527344 79.015625 65.359375 78.917969 65.359375 78.863281 C 65.367188 78.109375 64.648438 77.835938 64.261719 77.300781 C 64.886719 76.710938 65.164062 76.261719 65.75 76.878906 L 65.726562 76.816406 " fill-opacity="1" fill-rule="nonzero"/></g></g></g><g clip-path="url(#clip-33)"><g clip-path="url(#clip-34)"><g clip-path="url(#clip-35)"><path fill="rgb(100%, 100%, 100%)" d="M 62.191406 65.039062 C 61.9375 64.734375 61.679688 64.433594 61.441406 64.144531 C 61.15625 64.195312 60.878906 64.242188 60.601562 64.289062 L 60.617188 64.34375 C 61.117188 62.167969 60.886719 62.335938 61.910156 62.152344 C 62.390625 63.03125 62.457031 64 62.414062 64.992188 C 62.339844 65.011719 62.269531 65.027344 62.191406 65.039062 " fill-opacity="1" fill-rule="nonzero"/></g></g></g><g clip-path="url(#clip-36)"><g clip-path="url(#clip-37)"><g clip-path="url(#clip-38)"><path fill="rgb(100%, 100%, 100%)" d="M 79.238281 75.359375 C 77.792969 74.386719 76.96875 73.941406 77.136719 73.625 C 77.417969 73.105469 77.875 73.113281 78.480469 73.261719 C 78.84375 73.351562 78.964844 73.75 79.328125 75.066406 C 79.351562 75.148438 79.242188 75.269531 79.195312 75.367188 L 79.238281 75.359375 " fill-opacity="1" fill-rule="nonzero"/></g></g></g><g clip-path="url(#clip-39)"><g clip-path="url(#clip-40)"><g clip-path="url(#clip-41)"><path fill="rgb(100%, 100%, 100%)" d="M 58.542969 67.625 C 58.933594 67.472656 59.152344 67.386719 59.390625 67.296875 C 59.882812 66.640625 58.613281 66.15625 60.476562 65.609375 C 60.277344 67.027344 60.320312 66.417969 60.308594 67.84375 C 59.769531 68.097656 59.234375 68.171875 58.542969 67.625 " fill-opacity="1" fill-rule="nonzero"/></g></g></g><g clip-path="url(#clip-42)"><g clip-path="url(#clip-43)"><g clip-path="url(#clip-44)"><path fill="rgb(100%, 100%, 100%)" d="M 57.539062 70.789062 C 58.167969 71.710938 57.050781 71.921875 55.890625 72.390625 C 55.335938 72.023438 55.335938 71.015625 56.203125 70.859375 C 56.648438 70.777344 57.121094 70.808594 57.539062 70.789062 " fill-opacity="1" fill-rule="nonzero"/></g></g></g><g clip-path="url(#clip-45)"><g clip-path="url(#clip-46)"><g clip-path="url(#clip-47)"><path fill="rgb(100%, 100%, 100%)" d="M 26.75 45.167969 C 28.351562 45.320312 27.921875 46.851562 27.238281 46.832031 C 25.921875 46.800781 26.617188 45.539062 26.75 45.167969 " fill-opacity="1" fill-rule="nonzero"/></g></g></g><g clip-path="url(#clip-48)"><g clip-path="url(#clip-49)"><g clip-path="url(#clip-50)"><path fill="rgb(100%, 100%, 100%)" d="M 53.71875 66.050781 C 53.289062 66.230469 52.859375 66.410156 52.425781 66.589844 C 52.113281 66.171875 52.121094 65.734375 52.347656 65.289062 C 53.46875 65.222656 53.472656 65.21875 53.71875 66.050781 " fill-opacity="1" fill-rule="nonzero"/></g></g></g><g clip-path="url(#clip-51)"><g clip-path="url(#clip-52)"><g clip-path="url(#clip-53)"><path fill="rgb(100%, 100%, 100%)" d="M 72.703125 94.160156 C 72.503906 94.835938 72.238281 95.25 71.742188 95.511719 C 71.21875 95.03125 71.667969 94.5625 71.609375 93.996094 C 72.015625 94.050781 72.289062 94.09375 72.703125 94.160156 " fill-opacity="1" fill-rule="nonzero"/></g></g></g><g clip-path="url(#clip-54)"><g clip-path="url(#clip-55)"><g clip-path="url(#clip-56)"><path fill="rgb(100%, 100%, 100%)" d="M 98.289062 95.46875 C 98.003906 95.808594 97.910156 96.027344 97.789062 96.042969 C 96.671875 96.1875 96.113281 94.839844 96.613281 94.972656 C 97.105469 95.101562 97.585938 95.257812 98.289062 95.46875 " fill-opacity="1" fill-rule="nonzero"/></g></g></g><g clip-path="url(#clip-57)"><g clip-path="url(#clip-58)"><g clip-path="url(#clip-59)"><path fill="rgb(100%, 100%, 100%)" d="M 82.199219 97.515625 C 82.589844 97.65625 82.84375 97.742188 83.191406 97.863281 C 83.078125 98.320312 82.980469 98.707031 82.863281 99.164062 C 82.296875 98.945312 82.445312 99.355469 82.199219 97.515625 " fill-opacity="1" fill-rule="nonzero"/></g></g></g><g clip-path="url(#clip-60)"><g clip-path="url(#clip-61)"><g clip-path="url(#clip-62)"><path fill="rgb(100%, 100%, 100%)" d="M 70.535156 86.945312 C 70.511719 86.761719 70.449219 86.621094 70.496094 86.550781 C 70.859375 85.988281 72.175781 85.734375 71.976562 86.796875 C 71.511719 86.84375 71.023438 86.894531 70.535156 86.945312 " fill-opacity="1" fill-rule="nonzero"/></g></g></g><g clip-path="url(#clip-63)"><g clip-path="url(#clip-64)"><g clip-path="url(#clip-65)"><path fill="rgb(100%, 100%, 100%)" d="M 72.320312 69.867188 C 72.265625 69.375 72.226562 69.03125 72.199219 68.714844 C 72.554688 68.394531 72.878906 68.335938 73.097656 68.757812 C 73.316406 69.171875 73.167969 69.378906 72.320312 69.867188 " fill-opacity="1" fill-rule="nonzero"/></g></g></g><g clip-path="url(#clip-66)"><g clip-path="url(#clip-67)"><g clip-path="url(#clip-68)"><path fill="rgb(100%, 100%, 100%)" d="M 65.75 76.878906 C 65.71875 76.652344 65.683594 76.425781 65.65625 76.203125 C 66.3125 76.394531 66.3125 76.394531 66.90625 76.90625 C 66.445312 77.171875 66.773438 77.234375 65.726562 76.816406 L 65.75 76.878906 " fill-opacity="1" fill-rule="nonzero"/></g></g></g><g clip-path="url(#clip-69)"><g clip-path="url(#clip-70)"><g clip-path="url(#clip-71)"><path fill="rgb(100%, 100%, 100%)" d="M 62.414062 64.992188 C 62.863281 65.332031 62.839844 65.820312 62.757812 66.292969 C 62.738281 66.414062 62.527344 66.503906 62.359375 66.644531 C 62.246094 66.070312 61.90625 65.589844 62.191406 65.039062 C 62.269531 65.027344 62.339844 65.011719 62.414062 64.992188 " fill-opacity="1" fill-rule="nonzero"/></g></g></g><g clip-path="url(#clip-72)"><g clip-path="url(#clip-73)"><g clip-path="url(#clip-74)"><path fill="rgb(100%, 100%, 100%)" d="M 105.589844 51.082031 C 105.554688 50.988281 105.453125 50.851562 105.484375 50.792969 C 105.632812 50.554688 105.804688 50.332031 106.007812 50.136719 C 106.046875 50.101562 106.351562 50.230469 106.375 50.328125 C 106.503906 50.785156 106.015625 51.363281 105.589844 51.082031 " fill-opacity="1" fill-rule="nonzero"/></g></g></g><g clip-path="url(#clip-75)"><g clip-path="url(#clip-76)"><g clip-path="url(#clip-77)"><path fill="rgb(100%, 100%, 100%)" d="M 77.546875 65.300781 C 77.292969 65.953125 77.0625 66.453125 76.289062 66.523438 C 76.339844 65.695312 76.871094 65.5 77.546875 65.300781 " fill-opacity="1" fill-rule="nonzero"/></g></g></g><g clip-path="url(#clip-78)"><g clip-path="url(#clip-79)"><g clip-path="url(#clip-80)"><path fill="rgb(100%, 100%, 100%)" d="M 65.953125 81.761719 C 66.113281 81.519531 66.277344 81.269531 66.496094 80.9375 C 66.828125 81.113281 67.125 81.273438 67.480469 81.460938 C 67.121094 81.671875 67.5 81.613281 65.941406 81.703125 L 65.953125 81.761719 " fill-opacity="1" fill-rule="nonzero"/></g></g></g><g clip-path="url(#clip-81)"><g clip-path="url(#clip-82)"><g clip-path="url(#clip-83)"><path fill="rgb(100%, 100%, 100%)" d="M 85.949219 22.492188 C 85.953125 22.96875 86.09375 23.445312 85.453125 23.199219 C 85.246094 23.117188 85.195312 22.710938 85.371094 22.59375 C 85.484375 22.507812 85.675781 22.53125 85.949219 22.492188 " fill-opacity="1" fill-rule="nonzero"/></g></g></g><g clip-path="url(#clip-84)"><g clip-path="url(#clip-85)"><g clip-path="url(#clip-86)"><path fill="rgb(100%, 100%, 100%)" d="M 70.097656 88.195312 C 69.667969 88.507812 69.367188 88.3125 69.097656 87.957031 C 69.648438 87.710938 69.648438 87.710938 70.097656 88.195312 " fill-opacity="1" fill-rule="nonzero"/></g></g></g><g clip-path="url(#clip-87)"><g clip-path="url(#clip-88)"><g clip-path="url(#clip-89)"><path fill="rgb(100%, 100%, 100%)" d="M 84.332031 101.03125 C 84.054688 101.269531 83.378906 101.457031 83.621094 100.835938 C 84 99.875 84.734375 100.695312 84.332031 101.03125 " fill-opacity="1" fill-rule="nonzero"/></g></g></g><g clip-path="url(#clip-90)"><g clip-path="url(#clip-91)"><g clip-path="url(#clip-92)"><path fill="rgb(100%, 100%, 100%)" d="M 102.558594 91.695312 C 103.375 92.386719 103.195312 92.179688 103.277344 92.425781 C 102.9375 92.941406 102.046875 92.328125 102.617188 91.671875 L 102.558594 91.695312 " fill-opacity="1" fill-rule="nonzero"/></g></g></g><g clip-path="url(#clip-93)"><g clip-path="url(#clip-94)"><g clip-path="url(#clip-95)"><path fill="rgb(100%, 100%, 100%)" d="M 80.96875 96.640625 C 80.921875 97.261719 80.476562 97.265625 79.988281 97.375 C 80.167969 96.8125 80.535156 96.691406 80.96875 96.640625 " fill-opacity="1" fill-rule="nonzero"/></g></g></g><g clip-path="url(#clip-96)"><g clip-path="url(#clip-97)"><g clip-path="url(#clip-98)"><path fill="rgb(100%, 100%, 100%)" d="M 26.378906 50.503906 C 26.5 51.195312 26.601562 51.023438 26.011719 51.164062 C 25.890625 50.597656 25.816406 50.777344 26.378906 50.503906 " fill-opacity="1" fill-rule="nonzero"/></g></g></g><g clip-path="url(#clip-99)"><g clip-path="url(#clip-100)"><g clip-path="url(#clip-101)"><path fill="rgb(100%, 100%, 100%)" d="M 102.996094 63.660156 C 102.523438 63.921875 102.601562 63.96875 102.339844 63.664062 C 102.257812 63.5625 102.5 63.242188 103.105469 63.28125 C 103.070312 63.386719 103.042969 63.5 102.996094 63.660156 " fill-opacity="1" fill-rule="nonzero"/></g></g></g><g clip-path="url(#clip-102)"><g clip-path="url(#clip-103)"><g clip-path="url(#clip-104)"><path fill="rgb(100%, 100%, 100%)" d="M 102.617188 91.671875 C 102.34375 91.636719 102.0625 91.597656 101.78125 91.5625 C 101.785156 91.101562 102.113281 91.082031 102.335938 91.140625 C 102.453125 91.167969 102.488281 91.5 102.558594 91.695312 L 102.617188 91.671875 " fill-opacity="1" fill-rule="nonzero"/></g></g></g><g clip-path="url(#clip-105)"><g clip-path="url(#clip-106)"><g clip-path="url(#clip-107)"><path fill="rgb(100%, 100%, 100%)" d="M 62.902344 120.335938 C 62.1875 120.492188 62.386719 120.566406 62.183594 120.027344 C 62.78125 119.808594 62.582031 119.773438 62.902344 120.335938 " fill-opacity="1" fill-rule="nonzero"/></g></g></g><g clip-path="url(#clip-108)"><g clip-path="url(#clip-109)"><g clip-path="url(#clip-110)"><path fill="rgb(100%, 100%, 100%)" d="M 100.808594 92.746094 C 100.679688 92.753906 100.59375 92.757812 100.507812 92.765625 C 100.511719 92.628906 100.503906 92.492188 100.519531 92.359375 C 100.519531 92.335938 100.660156 92.308594 100.664062 92.3125 C 100.714844 92.449219 100.761719 92.59375 100.808594 92.746094 " fill-opacity="1" fill-rule="nonzero"/></g></g></g><g clip-path="url(#clip-111)"><g clip-path="url(#clip-112)"><g clip-path="url(#clip-113)"><path fill="rgb(100%, 100%, 100%)" d="M 67.894531 84.367188 C 67.835938 84.511719 67.777344 84.636719 67.726562 84.761719 C 67.421875 84.625 67.457031 84.761719 67.492188 84.308594 C 67.605469 84.324219 67.710938 84.339844 67.894531 84.367188 " fill-opacity="1" fill-rule="nonzero"/></g></g></g><g clip-path="url(#clip-114)"><g clip-path="url(#clip-115)"><g clip-path="url(#clip-116)"><path fill="rgb(100%, 100%, 100%)" d="M 68.996094 92.46875 C 68.867188 92.410156 68.742188 92.351562 68.621094 92.296875 C 68.761719 92.109375 68.796875 91.945312 69.078125 92.191406 C 69.101562 92.210938 69.035156 92.339844 68.996094 92.46875 " fill-opacity="1" fill-rule="nonzero"/></g></g></g><g clip-path="url(#clip-117)"><g clip-path="url(#clip-118)"><g clip-path="url(#clip-119)"><path fill="rgb(100%, 100%, 100%)" d="M 78.269531 98.417969 C 78.453125 98.808594 78.53125 98.6875 78.027344 98.980469 C 77.953125 98.742188 77.902344 98.90625 78.269531 98.417969 " fill-opacity="1" fill-rule="nonzero"/></g></g></g><g clip-path="url(#clip-120)"><g clip-path="url(#clip-121)"><g clip-path="url(#clip-122)"><path fill="rgb(100%, 100%, 100%)" d="M 99.054688 96.085938 C 98.664062 95.933594 98.753906 96.035156 98.785156 95.667969 C 99.097656 95.785156 99.050781 95.664062 99.054688 96.085938 " fill-opacity="1" fill-rule="nonzero"/></g></g></g><g clip-path="url(#clip-123)"><g clip-path="url(#clip-124)"><g clip-path="url(#clip-125)"><path fill="rgb(100%, 100%, 100%)" d="M 81.390625 102.78125 C 81.21875 102.421875 81.214844 102.550781 81.460938 102.296875 C 81.539062 102.597656 81.570312 102.460938 81.335938 102.789062 L 81.390625 102.78125 " fill-opacity="1" fill-rule="nonzero"/></g></g></g><g clip-path="url(#clip-126)"><g clip-path="url(#clip-127)"><g clip-path="url(#clip-128)"><path fill="rgb(100%, 100%, 100%)" d="M 80.007812 98.835938 C 79.925781 98.886719 79.835938 98.933594 79.753906 98.980469 C 79.726562 98.839844 79.621094 98.867188 79.996094 98.671875 C 80 98.726562 80.003906 98.78125 80.007812 98.835938 " fill-opacity="1" fill-rule="nonzero"/></g></g></g><g clip-path="url(#clip-129)"><g clip-path="url(#clip-130)"><g clip-path="url(#clip-131)"><path fill="rgb(100%, 100%, 100%)" d="M 87.230469 100.832031 C 87.152344 101.195312 87.152344 101.117188 87.019531 101.121094 C 87.105469 100.738281 87.105469 100.839844 87.230469 100.832031 " fill-opacity="1" fill-rule="nonzero"/></g></g></g><g clip-path="url(#clip-132)"><g clip-path="url(#clip-133)"><g clip-path="url(#clip-134)"><path fill="rgb(100%, 100%, 100%)" d="M 99.960938 32.539062 C 99.808594 32.523438 99.824219 32.582031 99.828125 32.359375 C 100 32.445312 99.953125 32.40625 99.960938 32.539062 " fill-opacity="1" fill-rule="nonzero"/></g></g></g><g clip-path="url(#clip-135)"><g clip-path="url(#clip-136)"><g clip-path="url(#clip-137)"><path fill="rgb(100%, 100%, 100%)" d="M 91.316406 66.890625 C 91.230469 66.914062 91.148438 66.933594 91.066406 66.960938 C 91.183594 66.84375 91.113281 66.835938 91.320312 66.925781 L 91.316406 66.890625 " fill-opacity="1" fill-rule="nonzero"/></g></g></g><g clip-path="url(#clip-138)"><g clip-path="url(#clip-139)"><g clip-path="url(#clip-140)"><path fill="rgb(100%, 100%, 100%)" d="M 107.445312 46.433594 C 107.46875 46.46875 107.496094 46.503906 107.519531 46.539062 C 107.519531 46.5 107.511719 46.457031 107.511719 46.417969 L 107.445312 46.433594 " fill-opacity="1" fill-rule="nonzero"/><path fill="rgb(100%, 100%, 100%)" d="M 107.511719 46.417969 C 107.492188 46.339844 107.476562 46.25 107.460938 46.171875 C 107.515625 46.277344 107.542969 46.214844 107.445312 46.433594 L 107.511719 46.417969 " fill-opacity="1" fill-rule="nonzero"/></g></g></g><g clip-path="url(#clip-141)"><g clip-path="url(#clip-142)"><g clip-path="url(#clip-143)"><path fill="rgb(100%, 100%, 100%)" d="M 81.335938 102.789062 C 81.367188 102.832031 81.394531 102.875 81.429688 102.914062 C 81.414062 102.871094 81.402344 102.824219 81.390625 102.78125 L 81.335938 102.789062 " fill-opacity="1" fill-rule="nonzero"/></g></g></g><g clip-path="url(#clip-144)"><g clip-path="url(#clip-145)"><g clip-path="url(#clip-146)"><path fill="rgb(100%, 100%, 100%)" d="M 87.453125 102.074219 C 87.480469 102.121094 87.507812 102.164062 87.53125 102.210938 C 87.523438 102.160156 87.515625 102.109375 87.503906 102.0625 L 87.453125 102.074219 " fill-opacity="1" fill-rule="nonzero"/></g></g></g><g clip-path="url(#clip-147)"><g clip-path="url(#clip-148)"><g clip-path="url(#clip-149)"><path fill="rgb(100%, 100%, 100%)" d="M 79.507812 97.019531 C 79.320312 97.039062 79.359375 97.074219 79.339844 96.886719 C 79.53125 96.867188 79.484375 96.832031 79.507812 97.019531 " fill-opacity="1" fill-rule="nonzero"/></g></g></g><g clip-path="url(#clip-150)"><g clip-path="url(#clip-151)"><g clip-path="url(#clip-152)"><path fill="rgb(100%, 100%, 100%)" d="M 88.582031 97.152344 C 88.5625 97.085938 88.546875 97.011719 88.527344 96.9375 C 88.613281 97.046875 88.597656 97.007812 88.546875 97.164062 L 88.582031 97.152344 " fill-opacity="1" fill-rule="nonzero"/></g></g></g><g clip-path="url(#clip-153)"><g clip-path="url(#clip-154)"><g clip-path="url(#clip-155)"><path fill="rgb(100%, 100%, 100%)" d="M 65.941406 81.703125 C 65.730469 81.765625 65.90625 81.75 65.953125 81.761719 L 65.941406 81.703125 " fill-opacity="1" fill-rule="nonzero"/></g></g></g><g clip-path="url(#clip-156)"><g clip-path="url(#clip-157)"><g clip-path="url(#clip-158)"><path fill="rgb(100%, 100%, 100%)" d="M 21.792969 96.222656 C 21.753906 96.140625 21.71875 96.0625 21.683594 95.976562 C 21.761719 96.058594 21.777344 95.996094 21.730469 96.238281 L 21.792969 96.222656 " fill-opacity="1" fill-rule="nonzero"/></g></g></g><g clip-path="url(#clip-159)"><g clip-path="url(#clip-160)"><g clip-path="url(#clip-161)"><path fill="rgb(100%, 100%, 100%)" d="M 87.503906 102.0625 C 87.449219 101.988281 87.394531 101.914062 87.335938 101.835938 C 87.679688 101.761719 87.472656 101.964844 87.453125 102.074219 L 87.503906 102.0625 " fill-opacity="1" fill-rule="nonzero"/></g></g></g><g clip-path="url(#clip-162)"><g clip-path="url(#clip-163)"><g clip-path="url(#clip-164)"><path fill="rgb(100%, 100%, 100%)" d="M 60.601562 64.289062 C 60.558594 64.324219 60.511719 64.363281 60.464844 64.402344 C 60.519531 64.382812 60.566406 64.363281 60.617188 64.34375 L 60.601562 64.289062 " fill-opacity="1" fill-rule="nonzero"/></g></g></g><g clip-path="url(#clip-165)"><g clip-path="url(#clip-166)"><g clip-path="url(#clip-167)"><path fill="rgb(100%, 100%, 100%)" d="M 79.195312 75.367188 C 79.234375 75.410156 79.269531 75.453125 79.304688 75.496094 C 79.285156 75.449219 79.261719 75.40625 79.238281 75.359375 L 79.195312 75.367188 " fill-opacity="1" fill-rule="nonzero"/></g></g></g></g></g></g></svg>